<?xml version="1.0" encoding="UTF-8"?>
<!DOCTYPE svg PUBLIC "-//W3C//DTD SVG 1.1//EN" "http://www.w3.org/Graphics/SVG/1.1/DTD/svg11.dtd">
<svg xmlns="http://www.w3.org/2000/svg" version="1.1" width="528px" height="528px" style="shape-rendering:geometricPrecision; text-rendering:geometricPrecision; image-rendering:optimizeQuality; fill-rule:evenodd; clip-rule:evenodd" xmlns:xlink="http://www.w3.org/1999/xlink">
<g><path style="opacity:1" fill="#181c25" d="M 23.5,-0.5 C 183.5,-0.5 343.5,-0.5 503.5,-0.5C 515.167,3.83333 523.167,11.8333 527.5,23.5C 527.5,183.5 527.5,343.5 527.5,503.5C 523.167,515.167 515.167,523.167 503.5,527.5C 343.5,527.5 183.5,527.5 23.5,527.5C 11.8333,523.167 3.83333,515.167 -0.5,503.5C -0.5,343.5 -0.5,183.5 -0.5,23.5C 3.83333,11.8333 11.8333,3.83333 23.5,-0.5 Z"/></g>
<g><path style="opacity:1" fill="#8345fd" d="M 122.5,39.5 C 171.542,36.9252 206.042,57.9252 226,102.5C 239.72,151.684 225.554,190.518 183.5,219C 137.053,241.51 96.2197,234.01 61,196.5C 35.7803,162.065 32.7803,125.732 52,87.5C 68.3695,60.954 91.8695,44.954 122.5,39.5 Z"/></g>
<g><path style="opacity:1" fill="#f1d251" d="M 378.5,39.5 C 425.507,36.9082 459.34,56.5749 480,98.5C 494.711,139.888 486.544,176.054 455.5,207C 420.259,235.261 382.592,238.927 342.5,218C 308.308,195.496 292.808,163.662 296,122.5C 302.469,85.036 323.302,59.2027 358.5,45C 365.208,42.8343 371.874,41.001 378.5,39.5 Z"/></g>
<g><path style="opacity:1" fill="#fabd83" d="M 192.5,123.5 C 173.021,128.387 158.188,122.054 148,104.5C 143.651,95.1752 143.484,85.8419 147.5,76.5C 154.2,67.1639 163.2,63.9972 174.5,67C 195.33,73.1858 204.83,87.0191 203,108.5C 200.966,114.583 197.466,119.583 192.5,123.5 Z"/></g>
<g><path style="opacity:1" fill="#56bad6" d="M 463.5,127.5 C 447.594,117.869 431.928,107.702 416.5,97C 415.251,96.2599 414.251,96.4265 413.5,97.5C 392.381,111.445 371.381,125.612 350.5,140C 349.643,140.689 348.977,141.522 348.5,142.5C 350.022,143.562 351.688,144.229 353.5,144.5C 352.448,146.256 350.781,146.923 348.5,146.5C 348.5,148.833 348.5,151.167 348.5,153.5C 347.518,150.038 347.185,146.371 347.5,142.5C 349.727,120.143 352.06,97.8097 354.5,75.5C 355.6,74.4415 356.934,73.6082 358.5,73C 381.45,70.6279 404.45,69.6279 427.5,70C 429.09,71.0458 430.59,72.2125 432,73.5C 442.776,91.391 453.276,109.391 463.5,127.5 Z"/></g>
<g><path style="opacity:1" fill="#adecfc" d="M 354.5,75.5 C 352.06,97.8097 349.727,120.143 347.5,142.5C 339.296,142.33 331.13,141.663 323,140.5C 321.319,140.608 320.152,141.275 319.5,142.5C 318.333,139.12 318.833,135.787 321,132.5C 331,114.5 341,96.5 351,78.5C 352.039,77.2899 353.206,76.2899 354.5,75.5 Z"/></g>
<g><path style="opacity:1" fill="#e19973" d="M 147.5,76.5 C 143.484,85.8419 143.651,95.1752 148,104.5C 158.188,122.054 173.021,128.387 192.5,123.5C 190.167,126.167 187.833,128.833 185.5,131.5C 166.357,141.408 150.524,137.408 138,119.5C 133.438,111.802 131.771,103.469 133,94.5C 134.07,90.6891 135.903,87.3557 138.5,84.5C 141.5,81.8333 144.5,79.1667 147.5,76.5 Z"/></g>
<g><path style="opacity:1" fill="#6b454f" d="M 176.5,79.5 C 177.5,79.5 178.5,79.5 179.5,79.5C 179.762,80.9778 179.429,82.3112 178.5,83.5C 176.889,82.6798 176.222,81.3464 176.5,79.5 Z"/></g>
<g><path style="opacity:1" fill="#672f3d" d="M 189.5,97.5 C 188.833,97.5 188.167,97.5 187.5,97.5C 187.533,94.258 186.2,93.9246 183.5,96.5C 182.628,98.4496 181.961,100.45 181.5,102.5C 176.353,104.007 171.686,106.34 167.5,109.5C 163.011,109.167 161.511,106.833 163,102.5C 164.388,103.554 165.888,103.72 167.5,103C 175.099,95.5734 182.099,87.74 188.5,79.5C 190.984,81.0915 191.984,83.4248 191.5,86.5C 191.949,89.6367 190.949,92.1367 188.5,94C 189.337,95.0113 189.67,96.1779 189.5,97.5 Z"/></g>
<g><path style="opacity:1" fill="#c3c7da" d="M 138.5,84.5 C 135.903,87.3557 134.07,90.6891 133,94.5C 131.771,103.469 133.438,111.802 138,119.5C 150.524,137.408 166.357,141.408 185.5,131.5C 184.326,136.851 181.659,141.351 177.5,145C 172.89,147.797 168.223,150.297 163.5,152.5C 153.692,156.7 144.025,156.367 134.5,151.5C 128.527,147.527 123.527,142.527 119.5,136.5C 114.283,126.912 113.283,117.245 116.5,107.5C 117.458,106.038 118.624,104.705 120,103.5C 122.306,93.3616 128.472,87.0283 138.5,84.5 Z"/></g>
<g><path style="opacity:1" fill="#6d4750" d="M 165.5,89.5 C 166.873,89.3433 168.207,89.51 169.5,90C 170.674,92.8288 169.674,93.8288 166.5,93C 165.663,91.9887 165.33,90.8221 165.5,89.5 Z"/></g>
<g><path style="opacity:1" fill="#f0d9d4" d="M 187.5,97.5 C 185.5,98.8333 183.833,100.5 182.5,102.5C 182.167,102.5 181.833,102.5 181.5,102.5C 181.961,100.45 182.628,98.4496 183.5,96.5C 186.2,93.9246 187.533,94.258 187.5,97.5 Z"/></g>
<g><path style="opacity:1" fill="#3193ba" d="M 413.5,97.5 C 414.117,97.6107 414.617,97.944 415,98.5C 415.333,100.833 415.667,103.167 416,105.5C 417.434,124.251 419.434,142.918 422,161.5C 435.454,151.198 449.288,141.531 463.5,132.5C 454.201,151.098 444.367,169.431 434,187.5C 432.533,190.787 430.366,193.454 427.5,195.5C 425.994,184.795 424.16,174.129 422,163.5C 421.617,162.944 421.117,162.611 420.5,162.5C 398.548,155.765 376.215,149.765 353.5,144.5C 351.688,144.229 350.022,143.562 348.5,142.5C 348.977,141.522 349.643,140.689 350.5,140C 371.381,125.612 392.381,111.445 413.5,97.5 Z"/></g>
<g><path style="opacity:1" fill="#309ac4" d="M 413.5,97.5 C 414.251,96.4265 415.251,96.2599 416.5,97C 431.928,107.702 447.594,117.869 463.5,127.5C 463.5,129.167 463.5,130.833 463.5,132.5C 449.288,141.531 435.454,151.198 422,161.5C 419.434,142.918 417.434,124.251 416,105.5C 415.667,103.167 415.333,100.833 415,98.5C 414.617,97.944 414.117,97.6107 413.5,97.5 Z"/></g>
<g><path style="opacity:1" fill="#e5686f" d="M 187.5,97.5 C 188.167,97.5 188.833,97.5 189.5,97.5C 188.91,101.316 186.577,102.983 182.5,102.5C 183.833,100.5 185.5,98.8333 187.5,97.5 Z"/></g>
<g><path style="opacity:1" fill="#fdb10c" d="M 116.5,107.5 C 113.283,117.245 114.283,126.912 119.5,136.5C 113.636,141.86 107.803,147.527 102,153.5C 101.501,159.157 101.334,164.824 101.5,170.5C 100.512,165.36 100.179,160.026 100.5,154.5C 95.1258,155.177 89.7925,155.177 84.5,154.5C 82.8678,150.91 81.5345,147.243 80.5,143.5C 92.8874,131.779 104.887,119.779 116.5,107.5 Z"/></g>
<g><path style="opacity:1" fill="#fe9b02" d="M 119.5,136.5 C 123.527,142.527 128.527,147.527 134.5,151.5C 128.14,157.194 122.14,163.194 116.5,169.5C 111.507,169.916 106.507,170.249 101.5,170.5C 101.334,164.824 101.501,159.157 102,153.5C 107.803,147.527 113.636,141.86 119.5,136.5 Z"/></g>
<g><path style="opacity:1" fill="#6bcae4" d="M 347.5,142.5 C 347.185,146.371 347.518,150.038 348.5,153.5C 349.421,163.693 350.754,173.693 352.5,183.5C 352.569,188.854 352.902,194.187 353.5,199.5C 352.542,199.047 351.708,198.381 351,197.5C 343.731,184.57 336.064,171.904 328,159.5C 324.607,154.048 321.774,148.381 319.5,142.5C 320.152,141.275 321.319,140.608 323,140.5C 331.13,141.663 339.296,142.33 347.5,142.5 Z"/></g>
<g><path style="opacity:1" fill="#f9e084" d="M 80.5,143.5 C 81.5345,147.243 82.8678,150.91 84.5,154.5C 89.7925,155.177 95.1258,155.177 100.5,154.5C 100.179,160.026 100.512,165.36 101.5,170.5C 106.507,170.249 111.507,169.916 116.5,169.5C 116.334,175.176 116.501,180.843 117,186.5C 120.293,188.208 123.793,189.208 127.5,189.5C 116.707,191.94 105.707,193.94 94.5,195.5C 79.5327,196.527 73.1994,189.527 75.5,174.5C 77.0463,164.024 78.713,153.691 80.5,143.5 Z"/></g>
<g><path style="opacity:1" fill="#fd8208" d="M 134.5,151.5 C 144.025,156.367 153.692,156.7 163.5,152.5C 151.445,164.887 139.445,177.22 127.5,189.5C 123.793,189.208 120.293,188.208 117,186.5C 116.501,180.843 116.334,175.176 116.5,169.5C 122.14,163.194 128.14,157.194 134.5,151.5 Z"/></g>
<g><path style="opacity:1" fill="#429fc3" d="M 353.5,144.5 C 376.215,149.765 398.548,155.765 420.5,162.5C 416.326,165.088 411.993,167.421 407.5,169.5C 389.412,172.451 371.412,175.784 353.5,179.5C 352.571,180.689 352.238,182.022 352.5,183.5C 350.754,173.693 349.421,163.693 348.5,153.5C 348.5,151.167 348.5,148.833 348.5,146.5C 350.781,146.923 352.448,146.256 353.5,144.5 Z"/></g>
<g><path style="opacity:1" fill="#296f96" d="M 420.5,162.5 C 421.117,162.611 421.617,162.944 422,163.5C 424.16,174.129 425.994,184.795 427.5,195.5C 426.737,196.268 425.737,196.768 424.5,197C 401.385,199.489 378.385,200.656 355.5,200.5C 373.361,190.955 390.695,180.622 407.5,169.5C 411.993,167.421 416.326,165.088 420.5,162.5 Z"/></g>
<g><path style="opacity:1" fill="#358db6" d="M 407.5,169.5 C 390.695,180.622 373.361,190.955 355.5,200.5C 354.833,200.167 354.167,199.833 353.5,199.5C 352.902,194.187 352.569,188.854 352.5,183.5C 352.238,182.022 352.571,180.689 353.5,179.5C 371.412,175.784 389.412,172.451 407.5,169.5 Z"/></g>
<g><path style="opacity:1" fill="#df9a7a" d="M 75.5,174.5 C 73.1994,189.527 79.5327,196.527 94.5,195.5C 88.7342,196.552 82.9009,197.885 77,199.5C 75.5272,199.097 74.1939,198.43 73,197.5C 72.4524,189.562 73.2857,181.895 75.5,174.5 Z"/></g>
<g><path style="opacity:1" fill="rgba(0,0,0,.25)" d="M 378.5,295.5 C 427.545,292.926 462.045,313.926 482,358.5C 495.728,407.658 481.562,446.491 439.5,475C 403.314,493.241 368.314,491.241 334.5,469C 301.379,441.974 289.545,407.474 299,365.5C 311.979,326.681 338.479,303.348 378.5,295.5 Z"/></g>
<g><path style="opacity:1" fill="#bafbfb" d="M 209.5,331.5 C 209.144,332.87 208.31,333.87 207,334.5C 198.048,331.113 191.881,333.78 188.5,342.5C 187.178,342.67 186.011,342.337 185,341.5C 184.333,344.167 183.667,344.167 183,341.5C 181.055,342.692 179.055,342.692 177,341.5C 176.055,341.905 175.388,342.572 175,343.5C 173.402,341.491 171.402,341.491 169,343.5C 168.667,342.833 168.333,342.167 168,341.5C 167,342.833 166,342.833 165,341.5C 163.326,343.009 161.66,343.676 160,343.5C 158.316,341.541 156.316,341.541 154,343.5C 152.53,342.733 151.03,342.067 149.5,341.5C 141.362,332.007 131.362,329.007 119.5,332.5C 117.243,332.962 115.243,333.962 113.5,335.5C 112.614,334.675 112.281,333.675 112.5,332.5C 114.144,332.714 115.644,332.38 117,331.5C 120.779,324.782 124.945,318.282 129.5,312C 129.355,311.228 129.022,310.561 128.5,310C 115.396,308.978 106.896,314.811 103,327.5C 102.667,331.833 102.333,336.167 102,340.5C 97.4583,334.462 91.625,330.129 84.5,327.5C 79.6947,328.7 77.3614,331.7 77.5,336.5C 80.1766,338.46 83.1766,339.96 86.5,341C 84.7525,341.352 83.0858,341.852 81.5,342.5C 79.2163,342.975 77.2163,343.975 75.5,345.5C 70.6972,349.101 67.3638,353.768 65.5,359.5C 60.2577,355.353 54.2577,353.353 47.5,353.5C 62.5834,320.932 87.9167,301.765 123.5,296C 156.985,293.269 185.152,304.102 208,328.5C 208.513,329.527 209.013,330.527 209.5,331.5 Z"/></g>
<g><path style="opacity:1" fill="#64924f" d="M 119.5,332.5 C 120.788,334.035 120.788,335.701 119.5,337.5C 116.717,337.765 114.051,338.098 111.5,338.5C 106.213,337.138 103.546,339.138 103.5,344.5C 100.689,344.429 98.022,343.762 95.5,342.5C 94.5581,342.608 93.7247,342.941 93,343.5C 88.9273,338.883 83.7606,336.549 77.5,336.5C 77.3614,331.7 79.6947,328.7 84.5,327.5C 91.625,330.129 97.4583,334.462 102,340.5C 102.333,336.167 102.667,331.833 103,327.5C 106.896,314.811 115.396,308.978 128.5,310C 129.022,310.561 129.355,311.228 129.5,312C 124.945,318.282 120.779,324.782 117,331.5C 115.644,332.38 114.144,332.714 112.5,332.5C 112.281,333.675 112.614,334.675 113.5,335.5C 115.243,333.962 117.243,332.962 119.5,332.5 Z"/></g>
<g><path style="opacity:1" fill="#8aba75" d="M 149.5,341.5 C 147.105,342.814 144.605,342.814 142,341.5C 136.719,343.196 131.219,344.529 125.5,345.5C 127.041,347.204 128.375,349.037 129.5,351C 129.164,352.03 128.497,352.53 127.5,352.5C 123.08,346.744 117.747,342.078 111.5,338.5C 114.051,338.098 116.717,337.765 119.5,337.5C 120.788,335.701 120.788,334.035 119.5,332.5C 131.362,329.007 141.362,332.007 149.5,341.5 Z"/></g>
<g><path style="opacity:1" fill="#e6fcfc" d="M 209.5,331.5 C 214.141,336.1 217.808,341.434 220.5,347.5C 209.833,347.5 199.167,347.5 188.5,347.5C 188.5,345.833 188.5,344.167 188.5,342.5C 191.881,333.78 198.048,331.113 207,334.5C 208.31,333.87 209.144,332.87 209.5,331.5 Z"/></g>
<g><path style="opacity:1" fill="#acfbfb" d="M 149.5,341.5 C 151.03,342.067 152.53,342.733 154,343.5C 156.316,341.541 158.316,341.541 160,343.5C 161.66,343.676 163.326,343.009 165,341.5C 166,342.833 167,342.833 168,341.5C 168.333,342.167 168.667,342.833 169,343.5C 171.402,341.491 173.402,341.491 175,343.5C 175.388,342.572 176.055,341.905 177,341.5C 179.055,342.692 181.055,342.692 183,341.5C 183.667,344.167 184.333,344.167 185,341.5C 186.011,342.337 187.178,342.67 188.5,342.5C 188.5,344.167 188.5,345.833 188.5,347.5C 199.167,347.5 209.833,347.5 220.5,347.5C 229.721,364.728 233.055,383.061 230.5,402.5C 221.002,401.68 211.669,401.346 202.5,401.5C 204.398,395.659 204.898,389.659 204,383.5C 203.308,382.975 202.808,382.308 202.5,381.5C 206.943,381.448 211.276,381.115 215.5,380.5C 218.073,381.555 220.739,381.722 223.5,381C 213.436,367.484 200.769,364.317 185.5,371.5C 188.195,363.545 186.195,357.045 179.5,352C 175.558,351.285 171.891,349.952 168.5,348C 165.5,347.333 162.5,347.333 159.5,348C 157.078,349.888 157.078,351.888 159.5,354C 160.448,354.483 161.448,354.649 162.5,354.5C 162.247,356.827 162.914,358.827 164.5,360.5C 164.376,361.107 164.043,361.44 163.5,361.5C 154.72,357.228 146.054,357.728 137.5,363C 136.313,364.019 135.313,365.186 134.5,366.5C 137.514,368.576 140.681,369.243 144,368.5C 145.182,370.235 146.849,371.235 149,371.5C 150.731,370.259 152.564,369.259 154.5,368.5C 156.5,369.976 158.167,371.809 159.5,374C 162.85,375.486 166.184,376.653 169.5,377.5C 169.167,378.167 168.833,378.833 168.5,379.5C 167.417,379.461 166.417,379.127 165.5,378.5C 163.573,381.35 161.406,384.017 159,386.5C 158.586,386.043 158.086,385.709 157.5,385.5C 156.18,389.846 153.68,393.179 150,395.5C 149.608,399.072 147.941,401.739 145,403.5C 145.07,406.992 144.237,409.992 142.5,412.5C 140.922,417.855 139.256,423.189 137.5,428.5C 136.722,427.844 136.056,427.011 135.5,426C 136.037,424.208 136.37,422.375 136.5,420.5C 134.421,411.961 133.421,403.294 133.5,394.5C 132.5,394.5 131.5,394.5 130.5,394.5C 129.715,387.514 129.048,380.514 128.5,373.5C 127.5,373.5 126.5,373.5 125.5,373.5C 124.949,370.193 124.616,366.86 124.5,363.5C 123.325,363.719 122.325,363.386 121.5,362.5C 120.577,359.553 119.911,356.553 119.5,353.5C 118.5,353.5 117.5,353.5 116.5,353.5C 116.167,352.833 115.833,352.167 115.5,351.5C 115.917,350.876 116.584,350.543 117.5,350.5C 120.82,351.297 124.154,351.964 127.5,352.5C 128.497,352.53 129.164,352.03 129.5,351C 128.375,349.037 127.041,347.204 125.5,345.5C 131.219,344.529 136.719,343.196 142,341.5C 144.605,342.814 147.105,342.814 149.5,341.5 Z"/></g>
<g><path style="opacity:1" fill="#2e4a22" d="M 77.5,336.5 C 83.7606,336.549 88.9273,338.883 93,343.5C 93.7247,342.941 94.5581,342.608 95.5,342.5C 98.022,343.762 100.689,344.429 103.5,344.5C 103.546,339.138 106.213,337.138 111.5,338.5C 117.747,342.078 123.08,346.744 127.5,352.5C 124.154,351.964 120.82,351.297 117.5,350.5C 116.584,350.543 115.917,350.876 115.5,351.5C 112.758,349.914 109.758,348.747 106.5,348C 104.527,347.505 102.527,347.338 100.5,347.5C 93.8333,347.5 87.1667,347.5 80.5,347.5C 80.366,345.708 80.6993,344.042 81.5,342.5C 83.0858,341.852 84.7525,341.352 86.5,341C 83.1766,339.96 80.1766,338.46 77.5,336.5 Z"/></g>
<g><path style="opacity:1" fill="#618b4b" d="M 81.5,342.5 C 80.6993,344.042 80.366,345.708 80.5,347.5C 87.1667,347.5 93.8333,347.5 100.5,347.5C 98.8061,349.861 96.8061,351.861 94.5,353.5C 91.9649,354.349 89.4649,355.349 87,356.5C 85.0999,355.923 83.2666,355.256 81.5,354.5C 80.5263,352.915 79.0263,351.915 77,351.5C 75.872,349.655 75.372,347.655 75.5,345.5C 77.2163,343.975 79.2163,342.975 81.5,342.5 Z"/></g>
<g><path style="opacity:1" fill="#6e9d52" d="M 185.5,371.5 C 184.205,372.488 182.872,373.488 181.5,374.5C 179.565,373.85 177.565,373.517 175.5,373.5C 174.85,373.196 174.183,372.863 173.5,372.5C 172.91,368.609 170.91,365.942 167.5,364.5C 166.347,360.86 164.68,357.526 162.5,354.5C 161.448,354.649 160.448,354.483 159.5,354C 157.078,351.888 157.078,349.888 159.5,348C 162.5,347.333 165.5,347.333 168.5,348C 171.891,349.952 175.558,351.285 179.5,352C 186.195,357.045 188.195,363.545 185.5,371.5 Z"/></g>
<g><path style="opacity:1" fill="#81b467" d="M 75.5,345.5 C 75.372,347.655 75.872,349.655 77,351.5C 79.0263,351.915 80.5263,352.915 81.5,354.5C 81.1307,356.441 80.464,358.275 79.5,360C 75.4896,361.338 71.8229,363.172 68.5,365.5C 67.5041,365.414 66.6708,365.748 66,366.5C 65.5034,364.19 65.3367,361.857 65.5,359.5C 67.3638,353.768 70.6972,349.101 75.5,345.5 Z"/></g>
<g><path style="opacity:1" fill="#eafbfb" d="M 47.5,353.5 C 54.2577,353.353 60.2577,355.353 65.5,359.5C 65.3367,361.857 65.5034,364.19 66,366.5C 66.6708,365.748 67.5041,365.414 68.5,365.5C 71.6473,366.981 74.9806,368.148 78.5,369C 81.8442,370.894 83.1776,373.727 82.5,377.5C 68.5,377.5 54.5,377.5 40.5,377.5C 41.6113,369.039 43.9446,361.039 47.5,353.5 Z"/></g>
<g><path style="opacity:1" fill="#795842" d="M 100.5,347.5 C 102.527,347.338 104.527,347.505 106.5,348C 109.758,348.747 112.758,349.914 115.5,351.5C 115.833,352.167 116.167,352.833 116.5,353.5C 112.43,352.508 110.43,354.008 110.5,358C 112.613,363.429 114.28,368.929 115.5,374.5C 112.765,372.382 111.765,369.716 112.5,366.5C 111.079,363.991 109.412,361.657 107.5,359.5C 106.817,359.863 106.15,360.196 105.5,360.5C 101.513,360.99 97.8462,360.324 94.5,358.5C 94.5,356.833 94.5,355.167 94.5,353.5C 96.8061,351.861 98.8061,349.861 100.5,347.5 Z"/></g>
<g><path style="opacity:1" fill="#89b67a" d="M 163.5,361.5 C 159.612,362.725 156.612,365.059 154.5,368.5C 152.564,369.259 150.731,370.259 149,371.5C 146.849,371.235 145.182,370.235 144,368.5C 140.681,369.243 137.514,368.576 134.5,366.5C 135.313,365.186 136.313,364.019 137.5,363C 146.054,357.728 154.72,357.228 163.5,361.5 Z"/></g>
<g><path style="opacity:1" fill="#fff" d="M 387.5,359.5 C 390.167,359.5 392.833,359.5 395.5,359.5C 395.5,368.833 395.5,378.167 395.5,387.5C 404.833,387.5 414.167,387.5 423.5,387.5C 423.5,390.167 423.5,392.833 423.5,395.5C 414.167,395.5 404.833,395.5 395.5,395.5C 395.5,404.833 395.5,414.167 395.5,423.5C 392.833,423.5 390.167,423.5 387.5,423.5C 387.5,414.167 387.5,404.833 387.5,395.5C 378.167,395.5 368.833,395.5 359.5,395.5C 359.5,392.833 359.5,390.167 359.5,387.5C 368.833,387.5 378.167,387.5 387.5,387.5C 387.5,378.167 387.5,368.833 387.5,359.5 Z"/></g>
<g><path style="opacity:1" fill="#5e8051" d="M 162.5,354.5 C 164.68,357.526 166.347,360.86 167.5,364.5C 165.833,364.5 164.167,364.5 162.5,364.5C 162.338,366.527 162.505,368.527 163,370.5C 166.392,371.34 169.226,373.006 171.5,375.5C 171.167,376.5 170.5,377.167 169.5,377.5C 166.184,376.653 162.85,375.486 159.5,374C 158.167,371.809 156.5,369.976 154.5,368.5C 156.612,365.059 159.612,362.725 163.5,361.5C 164.043,361.44 164.376,361.107 164.5,360.5C 162.914,358.827 162.247,356.827 162.5,354.5 Z"/></g>
<g><path style="opacity:1" fill="#2d431f" d="M 167.5,364.5 C 170.91,365.942 172.91,368.609 173.5,372.5C 174.183,372.863 174.85,373.196 175.5,373.5C 174.329,374.345 172.995,375.011 171.5,375.5C 169.226,373.006 166.392,371.34 163,370.5C 162.505,368.527 162.338,366.527 162.5,364.5C 164.167,364.5 165.833,364.5 167.5,364.5 Z"/></g>
<g><path style="opacity:1" fill="#95c47e" d="M 215.5,380.5 C 207.525,380.743 200.192,378.91 193.5,375C 189.812,374.55 186.146,374.717 182.5,375.5C 181.833,375.5 181.5,375.167 181.5,374.5C 182.872,373.488 184.205,372.488 185.5,371.5C 200.769,364.317 213.436,367.484 223.5,381C 220.739,381.722 218.073,381.555 215.5,380.5 Z"/></g>
<g><path style="opacity:1" fill="#395d32" d="M 94.5,358.5 C 97.8462,360.324 101.513,360.99 105.5,360.5C 105.123,368.75 103.79,377.083 101.5,385.5C 98.6321,382.425 96.7988,378.759 96,374.5C 94.809,369.233 94.309,363.899 94.5,358.5 Z"/></g>
<g><path style="opacity:1" fill="#6f9d53" d="M 215.5,380.5 C 211.276,381.115 206.943,381.448 202.5,381.5C 202.808,382.308 203.308,382.975 204,383.5C 204.898,389.659 204.398,395.659 202.5,401.5C 199.203,398.704 196.036,395.704 193,392.5C 192.316,391.216 192.483,390.049 193.5,389C 191.292,388.809 189.292,388.309 187.5,387.5C 187.167,386.5 186.5,385.833 185.5,385.5C 183.771,384.764 182.771,383.43 182.5,381.5C 182.5,379.5 182.5,377.5 182.5,375.5C 186.146,374.717 189.812,374.55 193.5,375C 200.192,378.91 207.525,380.743 215.5,380.5 Z"/></g>
<g><path style="opacity:1" fill="#a6fafb" d="M 94.5,353.5 C 94.5,355.167 94.5,356.833 94.5,358.5C 94.309,363.899 94.809,369.233 96,374.5C 96.7988,378.759 98.6321,382.425 101.5,385.5C 103.79,377.083 105.123,368.75 105.5,360.5C 106.15,360.196 106.817,359.863 107.5,359.5C 109.412,361.657 111.079,363.991 112.5,366.5C 111.765,369.716 112.765,372.382 115.5,374.5C 115.322,375.695 114.989,376.862 114.5,378C 115.803,380.744 116.803,383.577 117.5,386.5C 114.467,387.85 111.467,389.35 108.5,391C 109.094,391.464 109.761,391.631 110.5,391.5C 109.048,392.302 107.382,392.802 105.5,393C 104.619,393.708 103.953,394.542 103.5,395.5C 97.5746,395.808 91.7412,395.475 86,394.5C 83.2355,395.025 82.4022,396.358 83.5,398.5C 82.1667,398.5 80.8333,398.5 79.5,398.5C 79.5,399.5 79.5,400.5 79.5,401.5C 66.6697,401.25 53.6697,401.25 40.5,401.5C 39.2156,393.629 39.2156,385.629 40.5,377.5C 54.5,377.5 68.5,377.5 82.5,377.5C 83.1776,373.727 81.8442,370.894 78.5,369C 74.9806,368.148 71.6473,366.981 68.5,365.5C 71.8229,363.172 75.4896,361.338 79.5,360C 80.464,358.275 81.1307,356.441 81.5,354.5C 83.2666,355.256 85.0999,355.923 87,356.5C 89.4649,355.349 91.9649,354.349 94.5,353.5 Z"/></g>
<g><path style="opacity:1" fill="#c58561" d="M 175.5,373.5 C 177.565,373.517 179.565,373.85 181.5,374.5C 181.5,375.167 181.833,375.5 182.5,375.5C 182.5,377.5 182.5,379.5 182.5,381.5C 180.143,381.663 177.81,381.497 175.5,381C 174.299,380.097 173.465,378.931 173,377.5C 172.503,380.146 172.336,382.813 172.5,385.5C 168.51,388.494 165.177,392.16 162.5,396.5C 162.5,394.833 162.5,393.167 162.5,391.5C 163.5,391.5 164.5,391.5 165.5,391.5C 165.5,390.167 165.5,388.833 165.5,387.5C 167.167,386.833 168.833,386.167 170.5,385.5C 170.975,382.918 170.308,380.918 168.5,379.5C 168.833,378.833 169.167,378.167 169.5,377.5C 170.5,377.167 171.167,376.5 171.5,375.5C 172.995,375.011 174.329,374.345 175.5,373.5 Z"/></g>
<g><path style="opacity:1" fill="#604533" d="M 182.5,381.5 C 182.771,383.43 183.771,384.764 185.5,385.5C 185.67,386.822 185.337,387.989 184.5,389C 182.323,390.202 179.989,390.702 177.5,390.5C 176.833,387.833 175.167,386.167 172.5,385.5C 172.336,382.813 172.503,380.146 173,377.5C 173.465,378.931 174.299,380.097 175.5,381C 177.81,381.497 180.143,381.663 182.5,381.5 Z"/></g>
<g><path style="opacity:1" fill="#3e653d" d="M 185.5,385.5 C 186.5,385.833 187.167,386.5 187.5,387.5C 185.863,391.676 184.363,396.009 183,400.5C 180.768,405.559 177.601,409.892 173.5,413.5C 173.167,412.833 172.833,412.167 172.5,411.5C 173.893,404.38 175.56,397.38 177.5,390.5C 179.989,390.702 182.323,390.202 184.5,389C 185.337,387.989 185.67,386.822 185.5,385.5 Z"/></g>
<g><path style="opacity:1" fill="#324a2b" d="M 117.5,386.5 C 117.4,389.667 118.067,392.667 119.5,395.5C 117.42,396.528 117.086,397.862 118.5,399.5C 117.167,399.5 115.833,399.5 114.5,399.5C 112.876,405.405 112.376,411.405 113,417.5C 114.942,421.069 117.108,424.402 119.5,427.5C 120.262,429.956 120.929,432.456 121.5,435C 120.622,436.8 119.955,438.633 119.5,440.5C 115.187,443.403 114.52,442.57 117.5,438C 116.451,437.508 115.451,437.674 114.5,438.5C 113.476,437.148 112.476,435.815 111.5,434.5C 111.169,431.962 109.836,430.296 107.5,429.5C 109.043,423.378 109.543,417.045 109,410.5C 106.824,410.012 104.991,409.012 103.5,407.5C 104.833,406.833 106.167,406.167 107.5,405.5C 106.399,403.358 105.399,401.192 104.5,399C 105.76,397.887 106.927,397.72 108,398.5C 108.494,396.866 108.66,395.199 108.5,393.5C 110.199,393.66 111.866,393.494 113.5,393C 112.756,391.961 111.756,391.461 110.5,391.5C 109.761,391.631 109.094,391.464 108.5,391C 111.467,389.35 114.467,387.85 117.5,386.5 Z"/></g>
<g><path style="opacity:1" fill="#426263" d="M 103.5,395.5 C 103.5,395.833 103.5,396.167 103.5,396.5C 100.161,396.89 96.8273,397.39 93.5,398C 92.0325,399.098 91.1992,400.598 91,402.5C 89.2197,401.406 87.3864,400.406 85.5,399.5C 86.4563,397.3 85.7896,396.967 83.5,398.5C 82.4022,396.358 83.2355,395.025 86,394.5C 91.7412,395.475 97.5746,395.808 103.5,395.5 Z"/></g>
<g><path style="opacity:1" fill="#253925" d="M 103.5,396.5 C 102.587,397.312 101.087,398.312 99,399.5C 98.218,402.257 98.718,404.757 100.5,407C 95.5794,407.46 94.246,409.96 96.5,414.5C 96.1583,415.338 95.4916,415.672 94.5,415.5C 93.5,415.5 92.5,415.5 91.5,415.5C 91.755,412.01 90.4217,409.343 87.5,407.5C 86.5224,407.977 85.6891,408.643 85,409.5C 84.6213,407.43 85.4547,405.93 87.5,405C 85.1401,403.82 82.8068,402.653 80.5,401.5C 80.1667,401.5 79.8333,401.5 79.5,401.5C 79.5,400.5 79.5,399.5 79.5,398.5C 80.8333,398.5 82.1667,398.5 83.5,398.5C 85.7896,396.967 86.4563,397.3 85.5,399.5C 87.3864,400.406 89.2197,401.406 91,402.5C 91.1992,400.598 92.0325,399.098 93.5,398C 96.8273,397.39 100.161,396.89 103.5,396.5 Z"/></g>
<g><path style="opacity:1" fill="#32574c" d="M 118.5,399.5 C 119.256,401.267 119.923,403.1 120.5,405C 120.229,412.547 119.896,420.047 119.5,427.5C 117.108,424.402 114.942,421.069 113,417.5C 112.376,411.405 112.876,405.405 114.5,399.5C 115.833,399.5 117.167,399.5 118.5,399.5 Z"/></g>
<g><path style="opacity:1" fill="#9ff4fb" d="M 172.5,385.5 C 175.167,386.167 176.833,387.833 177.5,390.5C 175.56,397.38 173.893,404.38 172.5,411.5C 172.833,412.167 173.167,412.833 173.5,413.5C 177.601,409.892 180.768,405.559 183,400.5C 184.363,396.009 185.863,391.676 187.5,387.5C 189.292,388.309 191.292,388.809 193.5,389C 192.483,390.049 192.316,391.216 193,392.5C 196.036,395.704 199.203,398.704 202.5,401.5C 211.669,401.346 221.002,401.68 230.5,402.5C 230.048,406.546 229.381,410.546 228.5,414.5C 204.691,414.75 180.024,415.083 154.5,415.5C 154.204,412.685 155.204,410.018 157.5,407.5C 157.291,406.914 156.957,406.414 156.5,406C 159.151,403.195 161.151,400.029 162.5,396.5C 165.177,392.16 168.51,388.494 172.5,385.5 Z"/></g>
<g><path style="opacity:1" fill="#446f49" d="M 110.5,391.5 C 111.756,391.461 112.756,391.961 113.5,393C 111.866,393.494 110.199,393.66 108.5,393.5C 108.66,395.199 108.494,396.866 108,398.5C 106.927,397.72 105.76,397.887 104.5,399C 105.399,401.192 106.399,403.358 107.5,405.5C 106.167,406.167 104.833,406.833 103.5,407.5C 104.991,409.012 106.824,410.012 109,410.5C 109.543,417.045 109.043,423.378 107.5,429.5C 105.635,424.963 102.635,421.296 98.5,418.5C 98.7709,416.62 98.1042,415.287 96.5,414.5C 94.246,409.96 95.5794,407.46 100.5,407C 98.718,404.757 98.218,402.257 99,399.5C 101.087,398.312 102.587,397.312 103.5,396.5C 103.5,396.167 103.5,395.833 103.5,395.5C 103.953,394.542 104.619,393.708 105.5,393C 107.382,392.802 109.048,392.302 110.5,391.5 Z"/></g>
<g><path style="opacity:1" fill="#436e49" d="M 80.5,401.5 C 82.8068,402.653 85.1401,403.82 87.5,405C 85.4547,405.93 84.6213,407.43 85,409.5C 85.6891,408.643 86.5224,407.977 87.5,407.5C 90.4217,409.343 91.755,412.01 91.5,415.5C 92.5,415.5 93.5,415.5 94.5,415.5C 92.7816,416.224 90.9483,416.891 89,417.5C 88.3333,418.167 88.3333,418.833 89,419.5C 90.3297,418.418 91.8297,417.751 93.5,417.5C 97.5743,423.976 101.408,430.643 105,437.5C 104.478,439.88 104.645,442.213 105.5,444.5C 103.883,443.411 103.05,441.744 103,439.5C 100.058,438.278 97.5583,436.445 95.5,434C 93.0722,433.253 91.4056,434.086 90.5,436.5C 90.2665,441.895 90.5998,447.228 91.5,452.5C 90.1667,452.5 88.8333,452.5 87.5,452.5C 87.6612,445.372 88.6612,438.372 90.5,431.5C 88.1662,431.597 85.9995,430.597 84,428.5C 79.8585,423.551 77.3585,417.884 76.5,411.5C 74.8002,411.626 73.3002,412.293 72,413.5C 71.2352,413.43 70.7352,413.097 70.5,412.5C 70.9382,412.565 71.2716,412.399 71.5,412C 70.3279,411.581 69.3279,410.915 68.5,410C 71.5819,408.128 74.2486,405.795 76.5,403C 77.7839,402.316 78.9505,402.483 80,403.5C 80.4643,402.906 80.631,402.239 80.5,401.5 Z"/></g>
<g><path style="opacity:1" fill="#f8a577" d="M 168.5,379.5 C 170.308,380.918 170.975,382.918 170.5,385.5C 168.833,386.167 167.167,386.833 165.5,387.5C 165.5,388.833 165.5,390.167 165.5,391.5C 164.5,391.5 163.5,391.5 162.5,391.5C 162.5,393.167 162.5,394.833 162.5,396.5C 161.151,400.029 159.151,403.195 156.5,406C 156.957,406.414 157.291,406.914 157.5,407.5C 155.204,410.018 154.204,412.685 154.5,415.5C 153.606,418.011 152.606,420.511 151.5,423C 151.57,423.765 151.903,424.265 152.5,424.5C 151.833,426.5 151.167,428.5 150.5,430.5C 149.449,431.222 148.782,432.222 148.5,433.5C 147.776,436.083 146.943,438.749 146,441.5C 141.723,440.64 139.557,437.973 139.5,433.5C 141.616,426.685 142.616,419.685 142.5,412.5C 144.237,409.992 145.07,406.992 145,403.5C 147.941,401.739 149.608,399.072 150,395.5C 153.68,393.179 156.18,389.846 157.5,385.5C 158.086,385.709 158.586,386.043 159,386.5C 161.406,384.017 163.573,381.35 165.5,378.5C 166.417,379.127 167.417,379.461 168.5,379.5 Z"/></g>
<g><path style="opacity:1" fill="#c8845d" d="M 116.5,353.5 C 114.502,357.523 114.002,361.856 115,366.5C 118.846,378.811 121.68,391.144 123.5,403.5C 123.341,417.734 123.008,432.068 122.5,446.5C 121.833,446.5 121.167,446.5 120.5,446.5C 120.795,444.265 120.461,442.265 119.5,440.5C 119.955,438.633 120.622,436.8 121.5,435C 120.929,432.456 120.262,429.956 119.5,427.5C 119.896,420.047 120.229,412.547 120.5,405C 119.923,403.1 119.256,401.267 118.5,399.5C 117.086,397.862 117.42,396.528 119.5,395.5C 118.067,392.667 117.4,389.667 117.5,386.5C 116.803,383.577 115.803,380.744 114.5,378C 114.989,376.862 115.322,375.695 115.5,374.5C 114.28,368.929 112.613,363.429 110.5,358C 110.43,354.008 112.43,352.508 116.5,353.5 Z"/></g>
<g><path style="opacity:1" fill="#9bf0fc" d="M 79.5,401.5 C 79.8333,401.5 80.1667,401.5 80.5,401.5C 80.631,402.239 80.4643,402.906 80,403.5C 78.9505,402.483 77.7839,402.316 76.5,403C 74.2486,405.795 71.5819,408.128 68.5,410C 69.3279,410.915 70.3279,411.581 71.5,412C 71.2716,412.399 70.9382,412.565 70.5,412.5C 66.1536,412.854 64.4869,415.187 65.5,419.5C 67.5273,419.338 69.5273,419.505 71.5,420C 68.5989,420.875 65.9323,422.042 63.5,423.5C 62.596,424.209 62.2627,425.209 62.5,426.5C 57.1053,426.267 51.772,426.6 46.5,427.5C 43.4675,419.07 41.4675,410.403 40.5,401.5C 53.6697,401.25 66.6697,401.25 79.5,401.5 Z"/></g>
<g><path style="opacity:1" fill="#85c3c5" d="M 96.5,414.5 C 98.1042,415.287 98.7709,416.62 98.5,418.5C 96.9582,417.699 95.2915,417.366 93.5,417.5C 91.8297,417.751 90.3297,418.418 89,419.5C 88.3333,418.833 88.3333,418.167 89,417.5C 90.9483,416.891 92.7816,416.224 94.5,415.5C 95.4916,415.672 96.1583,415.338 96.5,414.5 Z"/></g>
<g><path style="opacity:1" fill="#98ecfd" d="M 228.5,414.5 C 225.308,426.882 219.975,438.215 212.5,448.5C 201.5,448.5 190.5,448.5 179.5,448.5C 178.094,448.027 177.427,447.027 177.5,445.5C 178.71,445.068 179.71,444.401 180.5,443.5C 183.823,441.848 185.49,439.181 185.5,435.5C 185.071,432.229 183.904,429.229 182,426.5C 180.829,425.107 179.329,424.273 177.5,424C 171.843,423.501 166.176,423.334 160.5,423.5C 160.5,421.833 160.5,420.167 160.5,418.5C 157.011,419.313 154.344,421.313 152.5,424.5C 151.903,424.265 151.57,423.765 151.5,423C 152.606,420.511 153.606,418.011 154.5,415.5C 180.024,415.083 204.691,414.75 228.5,414.5 Z"/></g>
<g><path style="opacity:1" fill="#ab792f" d="M 160.5,423.5 C 157.188,423.149 154.855,424.482 153.5,427.5C 152.662,427.842 152.328,428.508 152.5,429.5C 151.833,429.833 151.167,430.167 150.5,430.5C 151.167,428.5 151.833,426.5 152.5,424.5C 154.344,421.313 157.011,419.313 160.5,418.5C 160.5,420.167 160.5,421.833 160.5,423.5 Z"/></g>
<g><path style="opacity:1" fill="#b47e29" d="M 93.5,417.5 C 95.2915,417.366 96.9582,417.699 98.5,418.5C 102.635,421.296 105.635,424.963 107.5,429.5C 109.836,430.296 111.169,431.962 111.5,434.5C 110.199,436.456 110.699,438.123 113,439.5C 113.667,440.5 113.667,441.5 113,442.5C 111.276,440.155 109.443,439.655 107.5,441C 107.645,441.772 107.978,442.439 108.5,443C 111.256,443.517 113.589,444.684 115.5,446.5C 116.338,446.842 116.672,447.508 116.5,448.5C 116.158,449.338 115.492,449.672 114.5,449.5C 114.631,448.624 114.298,447.957 113.5,447.5C 110.805,446.492 108.138,445.492 105.5,444.5C 104.645,442.213 104.478,439.88 105,437.5C 101.408,430.643 97.5743,423.976 93.5,417.5 Z"/></g>
<g><path style="opacity:1" fill="#639069" d="M 87.5,452.5 C 84.1667,453.167 80.8333,453.833 77.5,454.5C 77.6741,452.139 78.0074,449.806 78.5,447.5C 81.1873,447.664 83.854,447.497 86.5,447C 85.2713,445.471 83.7713,444.304 82,443.5C 81.51,442.207 81.3433,440.873 81.5,439.5C 78.1501,439.665 74.8168,439.498 71.5,439C 70.7935,435.929 71.7935,433.262 74.5,431C 66.7076,435.428 63.0409,432.928 63.5,423.5C 65.9323,422.042 68.5989,420.875 71.5,420C 69.5273,419.505 67.5273,419.338 65.5,419.5C 64.4869,415.187 66.1536,412.854 70.5,412.5C 70.7352,413.097 71.2352,413.43 72,413.5C 73.3002,412.293 74.8002,411.626 76.5,411.5C 77.3585,417.884 79.8585,423.551 84,428.5C 85.9995,430.597 88.1662,431.597 90.5,431.5C 88.6612,438.372 87.6612,445.372 87.5,452.5 Z"/></g>
<g><path style="opacity:1" fill="#f4a173" d="M 116.5,353.5 C 117.5,353.5 118.5,353.5 119.5,353.5C 119.911,356.553 120.577,359.553 121.5,362.5C 122.325,363.386 123.325,363.719 124.5,363.5C 124.616,366.86 124.949,370.193 125.5,373.5C 126.5,373.5 127.5,373.5 128.5,373.5C 129.048,380.514 129.715,387.514 130.5,394.5C 131.5,394.5 132.5,394.5 133.5,394.5C 133.421,403.294 134.421,411.961 136.5,420.5C 136.37,422.375 136.037,424.208 135.5,426C 136.056,427.011 136.722,427.844 137.5,428.5C 136.608,433.438 136.274,438.438 136.5,443.5C 134.273,444.401 133.273,446.067 133.5,448.5C 130.682,448.657 128.682,449.991 127.5,452.5C 125.833,452.5 124.167,452.5 122.5,452.5C 122.5,451.167 122.5,449.833 122.5,448.5C 122.5,447.833 122.5,447.167 122.5,446.5C 123.008,432.068 123.341,417.734 123.5,403.5C 121.68,391.144 118.846,378.811 115,366.5C 114.002,361.856 114.502,357.523 116.5,353.5 Z"/></g>
<g><path style="opacity:1" fill="#8aaafd" d="M 160.5,423.5 C 166.176,423.334 171.843,423.501 177.5,424C 179.329,424.273 180.829,425.107 182,426.5C 183.904,429.229 185.071,432.229 185.5,435.5C 185.49,439.181 183.823,441.848 180.5,443.5C 172.963,442.804 165.296,442.137 157.5,441.5C 156.194,440.088 155.36,438.421 155,436.5C 154.819,433.305 154.319,430.305 153.5,427.5C 154.855,424.482 157.188,423.149 160.5,423.5 Z"/></g>
<g><path style="opacity:1" fill="#33374d" d="M 177.5,429.5 C 180.166,429.066 181.333,430.066 181,432.5C 178.342,433.694 177.176,432.694 177.5,429.5 Z"/></g>
<g><path style="opacity:1" fill="#313447" d="M 161.5,430.5 C 161.5,431.167 161.5,431.833 161.5,432.5C 160.292,433.234 158.959,433.567 157.5,433.5C 157.5,432.167 157.5,430.833 157.5,429.5C 158.959,429.433 160.292,429.766 161.5,430.5 Z"/></g>
<g><path style="opacity:1" fill="#bbcffe" d="M 174.5,435.5 C 171.482,435.665 168.482,435.498 165.5,435C 163.771,433.211 163.104,431.044 163.5,428.5C 167.413,427.404 171.413,427.238 175.5,428C 176.954,430.784 176.621,433.284 174.5,435.5 Z"/></g>
<g><path style="opacity:1" fill="#7384fc" d="M 163.5,428.5 C 163.104,431.044 163.771,433.211 165.5,435C 168.482,435.498 171.482,435.665 174.5,435.5C 174.938,435.435 175.272,435.601 175.5,436C 169.63,438.867 164.963,437.7 161.5,432.5C 161.5,431.833 161.5,431.167 161.5,430.5C 161.833,429.5 162.5,428.833 163.5,428.5 Z"/></g>
<g><path style="opacity:1" fill="#a1b2f9" d="M 152.5,429.5 C 152.26,432.579 152.593,435.579 153.5,438.5C 152.311,439.429 150.978,439.762 149.5,439.5C 148.539,437.735 148.205,435.735 148.5,433.5C 148.782,432.222 149.449,431.222 150.5,430.5C 151.167,430.167 151.833,429.833 152.5,429.5 Z"/></g>
<g><path style="opacity:1" fill="#90e3fa" d="M 63.5,423.5 C 63.0409,432.928 66.7076,435.428 74.5,431C 71.7935,433.262 70.7935,435.929 71.5,439C 74.8168,439.498 78.1501,439.665 81.5,439.5C 81.3433,440.873 81.51,442.207 82,443.5C 83.7713,444.304 85.2713,445.471 86.5,447C 83.854,447.497 81.1873,447.664 78.5,447.5C 71.8198,447.612 65.1531,447.946 58.5,448.5C 53.7413,441.989 49.7413,434.989 46.5,427.5C 51.772,426.6 57.1053,426.267 62.5,426.5C 62.2627,425.209 62.596,424.209 63.5,423.5 Z"/></g>
<g><path style="opacity:1" fill="#c9805b" d="M 142.5,412.5 C 142.616,419.685 141.616,426.685 139.5,433.5C 139.557,437.973 141.723,440.64 146,441.5C 146.943,438.749 147.776,436.083 148.5,433.5C 148.205,435.735 148.539,437.735 149.5,439.5C 150.9,440.1 151.9,441.1 152.5,442.5C 150.019,443.258 147.352,443.258 144.5,442.5C 144.649,443.552 144.483,444.552 144,445.5C 142.177,442.34 139.677,441.674 136.5,443.5C 136.274,438.438 136.608,433.438 137.5,428.5C 139.256,423.189 140.922,417.855 142.5,412.5 Z"/></g>
<g><path style="opacity:1" fill="#73963d" d="M 105.5,444.5 C 108.138,445.492 110.805,446.492 113.5,447.5C 114.298,447.957 114.631,448.624 114.5,449.5C 112.08,449.708 109.747,449.374 107.5,448.5C 106.614,449.325 106.281,450.325 106.5,451.5C 105.167,451.5 103.833,451.5 102.5,451.5C 101.167,451.5 99.8333,451.5 98.5,451.5C 98.3218,448.121 98.3218,444.955 98.5,442C 95.6305,440.404 92.9639,438.57 90.5,436.5C 91.4056,434.086 93.0722,433.253 95.5,434C 97.5583,436.445 100.058,438.278 103,439.5C 103.05,441.744 103.883,443.411 105.5,444.5 Z"/></g>
<g><path style="opacity:1" fill="#3a4937" d="M 152.5,442.5 C 154.082,444.97 156.415,446.47 159.5,447C 156.29,449.717 152.956,452.217 149.5,454.5C 141.757,455.13 134.424,454.463 127.5,452.5C 128.682,449.991 130.682,448.657 133.5,448.5C 133.273,446.067 134.273,444.401 136.5,443.5C 139.677,441.674 142.177,442.34 144,445.5C 144.483,444.552 144.649,443.552 144.5,442.5C 147.352,443.258 150.019,443.258 152.5,442.5 Z"/></g>
<g><path style="opacity:1" fill="#6574e4" d="M 153.5,427.5 C 154.319,430.305 154.819,433.305 155,436.5C 155.36,438.421 156.194,440.088 157.5,441.5C 165.296,442.137 172.963,442.804 180.5,443.5C 179.71,444.401 178.71,445.068 177.5,445.5C 172.302,444.239 167.135,444.239 162,445.5C 159.849,450.614 160.015,455.614 162.5,460.5C 163.5,459.833 164.5,459.167 165.5,458.5C 166.788,460.299 166.788,461.965 165.5,463.5C 162.562,462.467 159.895,460.967 157.5,459C 155.167,458.667 152.833,458.333 150.5,458C 149.663,456.989 149.33,455.822 149.5,454.5C 152.956,452.217 156.29,449.717 159.5,447C 156.415,446.47 154.082,444.97 152.5,442.5C 151.9,441.1 150.9,440.1 149.5,439.5C 150.978,439.762 152.311,439.429 153.5,438.5C 152.593,435.579 152.26,432.579 152.5,429.5C 152.328,428.508 152.662,427.842 153.5,427.5 Z"/></g>
<g><path style="opacity:1" fill="#509951" d="M 111.5,434.5 C 112.476,435.815 113.476,437.148 114.5,438.5C 115.451,437.674 116.451,437.508 117.5,438C 114.52,442.57 115.187,443.403 119.5,440.5C 118.66,442.853 117.326,444.853 115.5,446.5C 113.589,444.684 111.256,443.517 108.5,443C 107.978,442.439 107.645,441.772 107.5,441C 109.443,439.655 111.276,440.155 113,442.5C 113.667,441.5 113.667,440.5 113,439.5C 110.699,438.123 110.199,436.456 111.5,434.5 Z"/></g>
<g><path style="opacity:1" fill="#2a371e" d="M 119.5,440.5 C 120.461,442.265 120.795,444.265 120.5,446.5C 119.167,447.167 117.833,447.833 116.5,448.5C 116.672,447.508 116.338,446.842 115.5,446.5C 117.326,444.853 118.66,442.853 119.5,440.5 Z"/></g>
<g><path style="opacity:1" fill="#7d863c" d="M 90.5,436.5 C 92.9639,438.57 95.6305,440.404 98.5,442C 98.3218,444.955 98.3218,448.121 98.5,451.5C 99.8333,451.5 101.167,451.5 102.5,451.5C 102.5,452.167 102.167,452.5 101.5,452.5C 98.1667,452.5 94.8333,452.5 91.5,452.5C 90.5998,447.228 90.2665,441.895 90.5,436.5 Z"/></g>
<g><path style="opacity:1" fill="#89a6fc" d="M 177.5,445.5 C 177.427,447.027 178.094,448.027 179.5,448.5C 180.5,450.167 181.833,451.5 183.5,452.5C 185.444,456.116 184.444,458.116 180.5,458.5C 180.972,466.05 178.306,467.384 172.5,462.5C 170.444,465.941 168.111,466.274 165.5,463.5C 166.788,461.965 166.788,460.299 165.5,458.5C 164.5,459.167 163.5,459.833 162.5,460.5C 160.015,455.614 159.849,450.614 162,445.5C 167.135,444.239 172.302,444.239 177.5,445.5 Z"/></g>
<g><path style="opacity:1" fill="#449955" d="M 120.5,446.5 C 121.167,446.5 121.833,446.5 122.5,446.5C 122.5,447.167 122.5,447.833 122.5,448.5C 120.419,449.623 118.253,450.623 116,451.5C 114.97,451.164 114.47,450.497 114.5,449.5C 115.492,449.672 116.158,449.338 116.5,448.5C 117.833,447.833 119.167,447.167 120.5,446.5 Z"/></g>
<g><path style="opacity:1" fill="#4ca0ba" d="M 78.5,447.5 C 78.0074,449.806 77.6741,452.139 77.5,454.5C 73.4543,454.952 69.4543,455.619 65.5,456.5C 63.1765,453.874 60.8432,451.207 58.5,448.5C 65.1531,447.946 71.8198,447.612 78.5,447.5 Z"/></g>
<g><path style="opacity:1" fill="#56adc4" d="M 179.5,448.5 C 190.5,448.5 201.5,448.5 212.5,448.5C 210.471,450.858 208.471,453.192 206.5,455.5C 198.848,454.391 191.181,453.391 183.5,452.5C 181.833,451.5 180.5,450.167 179.5,448.5 Z"/></g>
<g><path style="opacity:1" fill="#9a7c4c" d="M 114.5,449.5 C 114.47,450.497 114.97,451.164 116,451.5C 118.253,450.623 120.419,449.623 122.5,448.5C 122.5,449.833 122.5,451.167 122.5,452.5C 117.28,453.031 112.113,453.697 107,454.5C 105.052,453.891 103.218,453.224 101.5,452.5C 102.167,452.5 102.5,452.167 102.5,451.5C 103.833,451.5 105.167,451.5 106.5,451.5C 106.281,450.325 106.614,449.325 107.5,448.5C 109.747,449.374 112.08,449.708 114.5,449.5 Z"/></g>
<g><path style="opacity:1" fill="#e7bf88" d="M 87.5,452.5 C 88.8333,452.5 90.1667,452.5 91.5,452.5C 94.8333,452.5 98.1667,452.5 101.5,452.5C 103.218,453.224 105.052,453.891 107,454.5C 112.113,453.697 117.28,453.031 122.5,452.5C 124.167,452.5 125.833,452.5 127.5,452.5C 134.424,454.463 141.757,455.13 149.5,454.5C 149.33,455.822 149.663,456.989 150.5,458C 152.833,458.333 155.167,458.667 157.5,459C 159.895,460.967 162.562,462.467 165.5,463.5C 168.111,466.274 170.444,465.941 172.5,462.5C 178.306,467.384 180.972,466.05 180.5,458.5C 184.444,458.116 185.444,456.116 183.5,452.5C 191.181,453.391 198.848,454.391 206.5,455.5C 182.545,480.654 153.212,490.82 118.5,486C 97.5116,481.846 79.845,472.012 65.5,456.5C 69.4543,455.619 73.4543,454.952 77.5,454.5C 80.8333,453.833 84.1667,453.167 87.5,452.5 Z"/></g>
</svg>
