<?xml version="1.0" encoding="UTF-8"?>
<!DOCTYPE svg PUBLIC "-//W3C//DTD SVG 1.1//EN" "http://www.w3.org/Graphics/SVG/1.1/DTD/svg11.dtd">
<svg xmlns="http://www.w3.org/2000/svg" version="1.1" width="354px" height="224px" style="shape-rendering:geometricPrecision; text-rendering:geometricPrecision; image-rendering:optimizeQuality; fill-rule:evenodd; clip-rule:evenodd" xmlns:xlink="http://www.w3.org/1999/xlink">
<g><path style="opacity:0.999" fill="#202225" d="M 9.5,-0.5 C 120.833,-0.5 232.167,-0.5 343.5,-0.5C 347.833,1.83333 351.167,5.16667 353.5,9.5C 353.5,80.8333 353.5,152.167 353.5,223.5C 348.167,223.5 342.833,223.5 337.5,223.5C 337.986,173.44 337.486,123.44 336,73.5C 333.778,69.6119 330.612,66.7786 326.5,65C 306.503,64.5 286.503,64.3334 266.5,64.5C 266.56,59.2891 264.893,54.7891 261.5,51C 252.507,51.221 243.507,51.721 234.5,52.5C 232.379,52.3253 230.379,52.6586 228.5,53.5C 227.5,53.5 226.5,53.5 225.5,53.5C 222.763,53.4013 220.096,53.7347 217.5,54.5C 200.297,55.1325 183.297,56.4658 166.5,58.5C 166.167,58.5 165.833,58.5 165.5,58.5C 160.138,58.4724 154.805,58.8058 149.5,59.5C 146.119,59.4595 142.786,59.7929 139.5,60.5C 131.404,60.6191 123.404,61.2858 115.5,62.5C 113.302,62.1201 111.635,62.7868 110.5,64.5C 82.498,64.3334 54.498,64.5 26.5,65C 22.3882,66.7786 19.2215,69.6119 17,73.5C 15.5139,123.44 15.0139,173.44 15.5,223.5C 10.1667,223.5 4.83333,223.5 -0.5,223.5C -0.5,152.167 -0.5,80.8333 -0.5,9.5C 1.83333,5.16667 5.16667,1.83333 9.5,-0.5 Z"/></g>
<g><path style="opacity:1" fill="#b5b7ba" d="M 19.5,20.5 C 23.8461,20.3343 28.1794,20.501 32.5,21C 33.6667,22.1667 34.8333,23.3333 36,24.5C 36.8072,30.4163 36.6406,36.2496 35.5,42C 29.9162,42.8056 24.4162,42.6389 19,41.5C 18.2055,34.4197 18.3722,27.4197 19.5,20.5 Z"/></g>
<g><path style="opacity:1" fill="#1f2224" d="M 30.5,22.5 C 35.1954,25.0251 35.1954,26.3585 30.5,26.5C 30.5,25.1667 30.5,23.8333 30.5,22.5 Z"/></g>
<g><path style="opacity:1" fill="#717274" d="M 192.5,23.5 C 191.5,23.5 190.5,23.5 189.5,23.5C 189.5,24.8333 189.5,26.1667 189.5,27.5C 188.549,26.0813 188.216,24.4147 188.5,22.5C 190.099,22.2322 191.432,22.5655 192.5,23.5 Z"/></g>
<g><path style="opacity:1" fill="#9e9fa0" d="M 53.5,34.5 C 52.8337,30.9792 52.1671,27.3125 51.5,23.5C 50.5091,27.4454 50.1758,31.4454 50.5,35.5C 49.5151,31.3656 49.1818,27.0323 49.5,22.5C 50.8333,22.5 52.1667,22.5 53.5,22.5C 53.5,26.5 53.5,30.5 53.5,34.5 Z"/></g>
<g><path style="opacity:1" fill="#efefef" d="M 53.5,34.5 C 53.9704,35.6935 54.9704,36.3601 56.5,36.5C 57.5,36.1667 58.5,35.8333 59.5,35.5C 60.4328,31.5705 60.7662,27.5705 60.5,23.5C 61.5,23.5 62.5,23.5 63.5,23.5C 63.6655,27.5138 63.4988,31.5138 63,35.5C 62.5348,36.9308 61.7014,38.0975 60.5,39C 57.8333,39.6667 55.1667,39.6667 52.5,39C 51.1772,38.1841 50.5106,37.0174 50.5,35.5C 50.1758,31.4454 50.5091,27.4454 51.5,23.5C 52.1671,27.3125 52.8337,30.9792 53.5,34.5 Z"/></g>
<g><path style="opacity:1" fill="#e4e4e5" d="M 110.5,23.5 C 113.833,23.5 117.167,23.5 120.5,23.5C 120.5,24.5 120.5,25.5 120.5,26.5C 118.167,26.5 115.833,26.5 113.5,26.5C 113.5,27.5 113.5,28.5 113.5,29.5C 118.835,29.005 121.335,31.3384 121,36.5C 118.103,39.2309 114.603,40.2309 110.5,39.5C 110.351,38.448 110.517,37.448 111,36.5C 113.931,38.0471 116.431,37.5471 118.5,35C 118.355,34.228 118.022,33.5613 117.5,33C 115.19,32.5034 112.857,32.3367 110.5,32.5C 110.5,29.5 110.5,26.5 110.5,23.5 Z"/></g>
<g><path style="opacity:1" fill="#e7e7e8" d="M 126.5,23.5 C 134.29,23.0527 137.457,26.7194 136,34.5C 132.868,40.2443 128.868,40.911 124,36.5C 122.743,31.6169 123.576,27.2835 126.5,23.5 Z"/></g>
<g><path style="opacity:1" fill="#e7e8e8" d="M 141.5,23.5 C 148.942,22.7754 152.109,26.1088 151,33.5C 149.905,38.7999 146.738,40.6333 141.5,39C 140.667,38.1667 139.833,37.3333 139,36.5C 137.743,31.6169 138.576,27.2835 141.5,23.5 Z"/></g>
<g><path style="opacity:1" fill="#ebebeb" d="M 158.5,30.5 C 158.217,29.7109 157.717,29.0442 157,28.5C 156.503,30.8098 156.337,33.1432 156.5,35.5C 156.5,36.8333 156.5,38.1667 156.5,39.5C 155.5,39.5 154.5,39.5 153.5,39.5C 153.833,34.1667 154.167,28.8333 154.5,23.5C 156.167,23.5 157.833,23.5 159.5,23.5C 160.16,27.3127 161.326,30.9793 163,34.5C 164.068,31.129 165.235,27.7957 166.5,24.5C 168.045,23.5481 169.712,23.2148 171.5,23.5C 171.833,28.8333 172.167,34.1667 172.5,39.5C 171.5,39.5 170.5,39.5 169.5,39.5C 169.219,35.8121 168.719,32.1454 168,28.5C 167.086,32.6037 165.419,36.2704 163,39.5C 162.228,39.3552 161.561,39.0219 161,38.5C 159.856,35.9196 159.022,33.2529 158.5,30.5 Z"/></g>
<g><path style="opacity:1" fill="#f0f0f0" d="M 175.5,23.5 C 178.518,23.3354 181.518,23.502 184.5,24C 185.982,26.5918 185.648,28.9251 183.5,31C 187.386,33.5257 187.386,36.1923 183.5,39C 180.854,39.4974 178.187,39.6641 175.5,39.5C 175.5,34.1667 175.5,28.8333 175.5,23.5 Z"/></g>
<g><path style="opacity:1" fill="#e7e8e8" d="M 192.5,23.5 C 192.588,27.3058 191.921,30.9725 190.5,34.5C 189.526,32.2573 189.192,29.924 189.5,27.5C 189.5,26.1667 189.5,24.8333 189.5,23.5C 190.5,23.5 191.5,23.5 192.5,23.5 Z"/></g>
<g><path style="opacity:1" fill="#e4e4e4" d="M 85.5,24.5 C 87.1765,25.1834 87.8432,26.5168 87.5,28.5C 88.5,28.5 89.5,28.5 90.5,28.5C 90.1788,30.0481 89.1788,30.7148 87.5,30.5C 86.828,33.9079 87.828,36.5745 90.5,38.5C 88.6471,39.7596 86.8138,39.7596 85,38.5C 84.7037,35.2942 84.2037,32.1275 83.5,29C 83.899,27.2725 84.5657,25.7725 85.5,24.5 Z"/></g>
<g><path style="opacity:1" fill="#76777a" d="M 85.5,24.5 C 86.209,23.596 87.209,23.2627 88.5,23.5C 88.3653,25.5542 89.032,27.2209 90.5,28.5C 89.5,28.5 88.5,28.5 87.5,28.5C 87.8432,26.5168 87.1765,25.1834 85.5,24.5 Z"/></g>
<g><path style="opacity:1" fill="#242629" d="M 178.5,25.5 C 181.5,25.1667 182.833,26.5 182.5,29.5C 181.167,29.5 179.833,29.5 178.5,29.5C 178.5,28.1667 178.5,26.8333 178.5,25.5 Z"/></g>
<g><path style="opacity:1" fill="#26282b" d="M 128.5,25.5 C 130.124,25.3601 131.29,26.0267 132,27.5C 132.667,30.5 132.667,33.5 132,36.5C 130.062,37.8602 128.396,37.5268 127,35.5C 126.037,31.8513 126.537,28.518 128.5,25.5 Z"/></g>
<g><path style="opacity:1" fill="#25272a" d="M 143.5,25.5 C 146.775,26.019 148.108,28.019 147.5,31.5C 148.051,34.576 146.884,36.576 144,37.5C 140.857,33.6656 140.69,29.6656 143.5,25.5 Z"/></g>
<g><path style="opacity:1" fill="#eaebeb" d="M 70.5,27.5 C 74.8243,27.1577 76.8243,29.1577 76.5,33.5C 76.664,38.3329 74.3306,40.3329 69.5,39.5C 69.5,40.8333 69.5,42.1667 69.5,43.5C 68.5,43.5 67.5,43.5 66.5,43.5C 66.5,38.5 66.5,33.5 66.5,28.5C 68.099,28.7678 69.4324,28.4345 70.5,27.5 Z"/></g>
<g><path style="opacity:1" fill="#e1e2e2" d="M 95.5,27.5 C 101.765,27.3634 104.265,30.3634 103,36.5C 99.952,40.0095 96.6187,40.3428 93,37.5C 91.8634,33.5369 92.6967,30.2036 95.5,27.5 Z"/></g>
<g><path style="opacity:1" fill="#1f2224" d="M 26.5,30.5 C 28.1958,30.6854 29.5291,31.5187 30.5,33C 29.0798,34.53 28.0798,36.3633 27.5,38.5C 26.9202,36.3633 25.9202,34.53 24.5,33C 25.3805,32.2917 26.0472,31.4584 26.5,30.5 Z"/></g>
<g><path style="opacity:1" fill="#25272a" d="M 70.5,30.5 C 71.5,30.5 72.5,30.5 73.5,30.5C 73.6621,32.5273 73.4955,34.5273 73,36.5C 71.9887,37.3366 70.8221,37.67 69.5,37.5C 69.298,35.0504 69.6314,32.717 70.5,30.5 Z"/></g>
<g><path style="opacity:1" fill="#2c2e31" d="M 95.5,30.5 C 99.6772,29.8416 101.177,31.5082 100,35.5C 99.0475,37.5922 97.7141,37.9255 96,36.5C 95.5045,34.5273 95.3379,32.5273 95.5,30.5 Z"/></g>
<g><path style="opacity:1" fill="#696a6c" d="M 158.5,30.5 C 157.833,32.1667 157.167,33.8333 156.5,35.5C 156.337,33.1432 156.503,30.8098 157,28.5C 157.717,29.0442 158.217,29.7109 158.5,30.5 Z"/></g>
<g><path style="opacity:1" fill="#303235" d="M 178.5,32.5 C 180.948,32.0101 182.615,32.8434 183.5,35C 182.381,36.876 180.714,37.7093 178.5,37.5C 178.5,35.8333 178.5,34.1667 178.5,32.5 Z"/></g>
<g><path style="opacity:1" fill="#f0f1f1" d="M 189.5,36.5 C 190.5,36.5 191.5,36.5 192.5,36.5C 192.5,37.5 192.5,38.5 192.5,39.5C 191.5,39.5 190.5,39.5 189.5,39.5C 189.5,38.5 189.5,37.5 189.5,36.5 Z"/></g>
<g><path style="opacity:1" fill="#dde6f9" d="M 234.5,52.5 C 234.751,57.5068 235.084,62.5068 235.5,67.5C 236.528,77.1392 237.194,86.8058 237.5,96.5C 237.5,96.8333 237.5,97.1667 237.5,97.5C 235.919,99.1417 235.253,101.142 235.5,103.5C 237.5,103.5 239.5,103.5 241.5,103.5C 236.36,104.488 231.026,104.821 225.5,104.5C 224.89,103.609 224.557,102.609 224.5,101.5C 226.467,101.739 228.301,101.406 230,100.5C 230.904,92.5287 230.404,84.6953 228.5,77C 226.19,76.5034 223.857,76.3367 221.5,76.5C 217.64,75.3559 213.64,74.6893 209.5,74.5C 209.611,73.8826 209.944,73.3826 210.5,73C 187.141,74.3204 163.807,76.1537 140.5,78.5C 139.926,72.5164 139.593,66.5164 139.5,60.5C 142.786,59.7929 146.119,59.4595 149.5,59.5C 152.332,65.5863 156.666,66.9196 162.5,63.5C 163.952,62.0603 164.952,60.3936 165.5,58.5C 165.833,58.5 166.167,58.5 166.5,58.5C 168.808,58.9138 171.142,59.2471 173.5,59.5C 188.401,58.5485 203.067,56.8818 217.5,54.5C 220.096,53.7347 222.763,53.4013 225.5,53.5C 225.5,57.1667 225.5,60.8333 225.5,64.5C 198.238,66.7971 171.238,68.7971 144.5,70.5C 148.616,72.3907 152.949,73.3907 157.5,73.5C 180.838,71.3325 204.172,69.1659 227.5,67C 228.72,65.4747 229.387,63.6413 229.5,61.5C 229.297,58.8031 228.964,56.1364 228.5,53.5C 230.379,52.6586 232.379,52.3253 234.5,52.5 Z"/></g>
<g><path style="opacity:1" fill="#b5c5e8" d="M 217.5,54.5 C 203.067,56.8818 188.401,58.5485 173.5,59.5C 171.142,59.2471 168.808,58.9138 166.5,58.5C 183.297,56.4658 200.297,55.1325 217.5,54.5 Z"/></g>
<g><path style="opacity:1" fill="#5e80e9" d="M 266.5,64.5 C 266.5,65.1667 266.5,65.8333 266.5,66.5C 266.5,68.1667 266.5,69.8333 266.5,71.5C 263.465,70.2665 260.465,70.2665 257.5,71.5C 253.486,71.6655 249.486,71.4988 245.5,71C 244.149,69.1859 243.149,69.5192 242.5,72C 240.527,72.4955 238.527,72.6621 236.5,72.5C 236.784,70.5853 236.451,68.9187 235.5,67.5C 235.084,62.5068 234.751,57.5068 234.5,52.5C 243.507,51.721 252.507,51.221 261.5,51C 264.893,54.7891 266.56,59.2891 266.5,64.5 Z"/></g>
<g><path style="opacity:1" fill="#b2c7f3" d="M 165.5,58.5 C 164.952,60.3936 163.952,62.0603 162.5,63.5C 156.666,66.9196 152.332,65.5863 149.5,59.5C 154.805,58.8058 160.138,58.4724 165.5,58.5 Z"/></g>
<g><path style="opacity:1" fill="#2f3136" d="M 110.5,64.5 C 109.03,66.1595 108.363,68.1595 108.5,70.5C 108.809,74.3698 109.476,78.0365 110.5,81.5C 110.5,85.5 110.5,89.5 110.5,93.5C 110.5,95.5 110.5,97.5 110.5,99.5C 101.314,101.465 92.3143,103.799 83.5,106.5C 78.182,106.913 73.182,108.413 68.5,111C 66.1789,114.623 65.8456,118.457 67.5,122.5C 64.9737,125.504 62.6403,128.004 60.5,130C 62.0675,132.847 61.7342,135.847 59.5,139C 60.1771,141.982 60.1771,144.815 59.5,147.5C 60.1667,148.5 60.8333,149.5 61.5,150.5C 61.4134,152.703 61.4134,154.87 61.5,157C 61.9963,158.996 62.9963,160.663 64.5,162C 60.9984,162.656 60.9984,163.989 64.5,166C 65.3859,167.439 65.3859,169.773 64.5,173C 66.3939,174.101 67.0606,175.434 66.5,177C 68.2763,178.671 68.6096,180.504 67.5,182.5C 69.332,184.298 69.6654,186.132 68.5,188C 70.4812,188.605 70.8146,189.605 69.5,191C 70.2266,192.399 70.7266,193.899 71,195.5C 73.7344,196.362 73.9011,197.195 71.5,198C 72.3279,198.915 73.3279,199.581 74.5,200C 73.572,200.388 72.9054,201.055 72.5,202C 73.2893,202.546 74.2893,203.213 75.5,204C 74.8333,205.333 74.1667,206.667 73.5,208C 74.6496,210.346 76.6496,212.513 79.5,214.5C 78.8346,216.101 78.5012,217.601 78.5,219C 79.8333,219.333 81.1667,219.667 82.5,220C 79.8333,220.667 79.8333,221.333 82.5,222C 81.944,222.383 81.6107,222.883 81.5,223.5C 59.5,223.5 37.5,223.5 15.5,223.5C 15.0139,173.44 15.5139,123.44 17,73.5C 19.2215,69.6119 22.3882,66.7786 26.5,65C 54.498,64.5 82.498,64.3334 110.5,64.5 Z"/></g>
<g><path style="opacity:1" fill="#2f3136" d="M 266.5,64.5 C 286.503,64.3334 306.503,64.5 326.5,65C 330.612,66.7786 333.778,69.6119 336,73.5C 337.486,123.44 337.986,173.44 337.5,223.5C 297.5,223.5 257.5,223.5 217.5,223.5C 218.23,221.955 219.563,221.122 221.5,221C 218.833,220.333 218.833,219.667 221.5,219C 220.619,217.207 221.286,216.54 223.5,217C 222.346,217.914 222.513,218.747 224,219.5C 224.309,218.234 224.809,217.067 225.5,216C 225.167,215.667 224.833,215.333 224.5,215C 225.5,214.667 226.5,214.333 227.5,214C 226.346,213.086 226.513,212.253 228,211.5C 228.333,211.833 228.667,212.167 229,212.5C 230.171,211.107 231.671,210.273 233.5,210C 232.524,207.853 232.691,205.686 234,203.5C 236.324,202.193 237.657,200.193 238,197.5C 239.011,198.337 240.178,198.67 241.5,198.5C 241.34,196.801 241.506,195.134 242,193.5C 242.667,197.5 243.333,197.5 244,193.5C 245.749,194.299 247.082,193.632 248,191.5C 248.333,191.833 248.667,192.167 249,192.5C 249.667,191.167 250.333,189.833 251,188.5C 251.333,188.833 251.667,189.167 252,189.5C 253.214,187.951 254.714,186.785 256.5,186C 256.043,185.586 255.709,185.086 255.5,184.5C 256.274,183.289 257.107,183.289 258,184.5C 259.487,183.747 259.654,182.914 258.5,182C 261.61,180.302 264.943,179.302 268.5,179C 261.833,178.333 261.833,177.667 268.5,177C 270.708,175.922 272.708,174.422 274.5,172.5C 273.371,170.471 273.871,170.137 276,171.5C 276.273,169.671 277.107,168.171 278.5,167C 278.167,166 277.833,165 277.5,164C 279.074,162.174 279.907,160.007 280,157.5C 283.806,155.662 283.973,153.162 280.5,150C 284.5,149.333 284.5,148.667 280.5,148C 281.727,146.413 281.394,145.079 279.5,144C 280.206,142.09 281.206,140.09 282.5,138C 281.5,137 280.5,136 279.5,135C 280.293,133.915 280.96,132.748 281.5,131.5C 280.617,130.452 279.95,129.285 279.5,128C 279.484,125.758 279.817,123.424 280.5,121C 280.097,119.527 279.43,118.194 278.5,117C 279.548,115.244 279.548,113.41 278.5,111.5C 278.529,109.971 279.196,108.804 280.5,108C 277.311,107.019 276.978,105.686 279.5,104C 278.833,103.667 278.167,103.333 277.5,103C 277.04,101.232 277.04,98.8988 277.5,96C 276.833,95.6667 276.167,95.3333 275.5,95C 279.325,93.2317 279.325,91.2317 275.5,89C 278.315,86.4794 277.982,84.8127 274.5,84C 275.634,82.984 275.301,82.3173 273.5,82C 273.87,77.3758 272.203,73.3758 268.5,70C 268.957,69.586 269.291,69.086 269.5,68.5C 268.218,68.9125 267.218,68.2458 266.5,66.5C 266.5,65.8333 266.5,65.1667 266.5,64.5 Z"/></g>
<g><path style="opacity:1" fill="#a2bef6" d="M 225.5,53.5 C 226.5,53.5 227.5,53.5 228.5,53.5C 228.964,56.1364 229.297,58.8031 229.5,61.5C 229.387,63.6413 228.72,65.4747 227.5,67C 204.172,69.1659 180.838,71.3325 157.5,73.5C 152.949,73.3907 148.616,72.3907 144.5,70.5C 171.238,68.7971 198.238,66.7971 225.5,64.5C 225.5,60.8333 225.5,57.1667 225.5,53.5 Z"/></g>
<g><path style="opacity:1" fill="#4c6cd3" d="M 115.5,62.5 C 114.841,65.4552 114.508,68.4552 114.5,71.5C 108.833,71.6636 108.5,71.9969 113.5,72.5C 113.086,75.7431 112.086,78.7431 110.5,81.5C 109.476,78.0365 108.809,74.3698 108.5,70.5C 108.363,68.1595 109.03,66.1595 110.5,64.5C 111.635,62.7868 113.302,62.1201 115.5,62.5 Z"/></g>
<g><path style="opacity:1" fill="#f4f5f9" d="M 209.5,74.5 C 184.717,80.196 160.05,86.196 135.5,92.5C 134.273,85.1274 129.94,82.2941 122.5,84C 117.662,86.9852 116.328,91.1518 118.5,96.5C 117.07,97.5375 115.403,98.2041 113.5,98.5C 113.192,92.5746 113.525,86.7412 114.5,81C 123.144,79.8864 131.811,79.0531 140.5,78.5C 163.807,76.1537 187.141,74.3204 210.5,73C 209.944,73.3826 209.611,73.8826 209.5,74.5 Z"/></g>
<g><path style="opacity:1" fill="#6586ed" d="M 139.5,60.5 C 139.593,66.5164 139.926,72.5164 140.5,78.5C 131.811,79.0531 123.144,79.8864 114.5,81C 113.525,86.7412 113.192,92.5746 113.5,98.5C 111.972,97.1979 110.972,95.5313 110.5,93.5C 110.5,89.5 110.5,85.5 110.5,81.5C 112.086,78.7431 113.086,75.7431 113.5,72.5C 108.5,71.9969 108.833,71.6636 114.5,71.5C 114.508,68.4552 114.841,65.4552 115.5,62.5C 123.404,61.2858 131.404,60.6191 139.5,60.5 Z"/></g>
<g><path style="opacity:1" fill="#cfdffb" d="M 209.5,74.5 C 213.64,74.6893 217.64,75.3559 221.5,76.5C 220.791,77.404 219.791,77.7373 218.5,77.5C 219.877,85.6745 221.877,93.6745 224.5,101.5C 224.557,102.609 224.89,103.609 225.5,104.5C 225.868,108.342 226.868,112.009 228.5,115.5C 231.899,116.181 235.232,116.514 238.5,116.5C 235.893,117.318 233.226,117.818 230.5,118C 229.269,119.183 229.269,120.349 230.5,121.5C 232.198,120.319 233.865,120.319 235.5,121.5C 233.577,122.308 231.577,122.808 229.5,123C 230.056,123.383 230.389,123.883 230.5,124.5C 229.391,124.557 228.391,124.89 227.5,125.5C 225.137,123.32 222.47,121.653 219.5,120.5C 221.027,116.075 220.527,111.742 218,107.5C 214.291,102.29 209.791,97.9569 204.5,94.5C 203.439,91.4893 202.273,88.4893 201,85.5C 199.005,83.253 196.505,82.253 193.5,82.5C 193.474,87.0854 194.474,91.4187 196.5,95.5C 194.011,95.2978 191.677,95.7978 189.5,97C 188.663,98.0113 188.33,99.1779 188.5,100.5C 186.323,97.9387 184.156,97.9387 182,100.5C 179.034,107.884 177.867,115.551 178.5,123.5C 177.791,124.404 176.791,124.737 175.5,124.5C 174.492,121.156 173.492,117.823 172.5,114.5C 173.5,114.5 174.5,114.5 175.5,114.5C 176.338,114.158 176.672,113.492 176.5,112.5C 176.326,110.139 175.993,107.806 175.5,105.5C 179.079,105.234 179.413,103.901 176.5,101.5C 177.624,100.086 178.624,98.586 179.5,97C 177.527,96.5045 175.527,96.3379 173.5,96.5C 173.577,92.7852 173.244,89.1185 172.5,85.5C 171.448,85.3505 170.448,85.5172 169.5,86C 166.01,88.1636 162.844,90.6636 160,93.5C 158.832,92.4911 157.665,91.4911 156.5,90.5C 154.771,92.8511 154.104,95.5178 154.5,98.5C 150.279,98.686 146.279,99.686 142.5,101.5C 140.14,98.4728 137.473,95.8062 134.5,93.5C 135.167,93.5 135.5,93.1667 135.5,92.5C 160.05,86.196 184.717,80.196 209.5,74.5 Z"/></g>
<g><path style="opacity:1" fill="#b0c2ee" d="M 235.5,67.5 C 236.451,68.9187 236.784,70.5853 236.5,72.5C 238.527,72.6621 240.527,72.4955 242.5,72C 243.149,69.5192 244.149,69.1859 245.5,71C 249.486,71.4988 253.486,71.6655 257.5,71.5C 255.193,72.9774 253.36,74.9774 252,77.5C 251.337,82.5374 251.504,87.5374 252.5,92.5C 246.81,91.6725 241.81,93.0058 237.5,96.5C 237.194,86.8058 236.528,77.1392 235.5,67.5 Z"/></g>
<g><path style="opacity:1" fill="#4964af" d="M 266.5,71.5 C 267.36,75.4338 267.693,79.4338 267.5,83.5C 264.703,85.795 262.036,88.295 259.5,91C 260.056,91.3826 260.389,91.8826 260.5,92.5C 259.761,92.369 259.094,92.5357 258.5,93C 259.64,94.9734 260.973,96.8067 262.5,98.5C 261.093,102.484 261.426,106.317 263.5,110C 261.336,113.985 261.669,117.985 264.5,122C 263.847,128.106 264.514,134.106 266.5,140C 266.167,140.333 265.833,140.667 265.5,141C 266.7,145.391 267.534,149.891 268,154.5C 268.383,155.056 268.883,155.389 269.5,155.5C 269.082,156.222 268.416,156.722 267.5,157C 263.848,157.499 260.182,157.665 256.5,157.5C 255.973,146.754 255.973,136.087 256.5,125.5C 257.833,121.833 257.833,118.167 256.5,114.5C 260.713,109.775 261.547,104.442 259,98.5C 258.722,99.4158 258.222,100.082 257.5,100.5C 257.567,99.0413 257.234,97.7079 256.5,96.5C 254.693,94.555 252.36,93.555 249.5,93.5C 246.821,93.9357 244.155,94.4357 241.5,95C 240.529,96.4813 239.196,97.3146 237.5,97.5C 237.5,97.1667 237.5,96.8333 237.5,96.5C 241.81,93.0058 246.81,91.6725 252.5,92.5C 251.504,87.5374 251.337,82.5374 252,77.5C 253.36,74.9774 255.193,72.9774 257.5,71.5C 260.465,70.2665 263.465,70.2665 266.5,71.5 Z"/></g>
<g><path style="opacity:1" fill="#27292d" d="M 266.5,66.5 C 267.218,68.2458 268.218,68.9125 269.5,68.5C 269.291,69.086 268.957,69.586 268.5,70C 272.203,73.3758 273.87,77.3758 273.5,82C 275.301,82.3173 275.634,82.984 274.5,84C 277.982,84.8127 278.315,86.4794 275.5,89C 279.325,91.2317 279.325,93.2317 275.5,95C 276.167,95.3333 276.833,95.6667 277.5,96C 277.04,98.8988 277.04,101.232 277.5,103C 278.167,103.333 278.833,103.667 279.5,104C 276.978,105.686 277.311,107.019 280.5,108C 279.196,108.804 278.529,109.971 278.5,111.5C 279.548,113.41 279.548,115.244 278.5,117C 279.43,118.194 280.097,119.527 280.5,121C 279.817,123.424 279.484,125.758 279.5,128C 279.95,129.285 280.617,130.452 281.5,131.5C 280.96,132.748 280.293,133.915 279.5,135C 280.5,136 281.5,137 282.5,138C 281.206,140.09 280.206,142.09 279.5,144C 281.394,145.079 281.727,146.413 280.5,148C 284.5,148.667 284.5,149.333 280.5,150C 283.973,153.162 283.806,155.662 280,157.5C 279.907,160.007 279.074,162.174 277.5,164C 277.833,165 278.167,166 278.5,167C 277.107,168.171 276.273,169.671 276,171.5C 273.871,170.137 273.371,170.471 274.5,172.5C 272.708,174.422 270.708,175.922 268.5,177C 261.833,177.667 261.833,178.333 268.5,179C 264.943,179.302 261.61,180.302 258.5,182C 259.654,182.914 259.487,183.747 258,184.5C 257.107,183.289 256.274,183.289 255.5,184.5C 255.709,185.086 256.043,185.586 256.5,186C 254.714,186.785 253.214,187.951 252,189.5C 251.667,189.167 251.333,188.833 251,188.5C 250.333,189.833 249.667,191.167 249,192.5C 248.667,192.167 248.333,191.833 248,191.5C 247.082,193.632 245.749,194.299 244,193.5C 243.333,197.5 242.667,197.5 242,193.5C 241.506,195.134 241.34,196.801 241.5,198.5C 240.178,198.67 239.011,198.337 238,197.5C 237.657,200.193 236.324,202.193 234,203.5C 232.691,205.686 232.524,207.853 233.5,210C 231.671,210.273 230.171,211.107 229,212.5C 228.667,212.167 228.333,211.833 228,211.5C 226.513,212.253 226.346,213.086 227.5,214C 226.5,214.333 225.5,214.667 224.5,215C 224.833,215.333 225.167,215.667 225.5,216C 224.809,217.067 224.309,218.234 224,219.5C 222.513,218.747 222.346,217.914 223.5,217C 221.286,216.54 220.619,217.207 221.5,219C 218.833,219.667 218.833,220.333 221.5,221C 219.563,221.122 218.23,221.955 217.5,223.5C 172.167,223.5 126.833,223.5 81.5,223.5C 81.6107,222.883 81.944,222.383 82.5,222C 79.8333,221.333 79.8333,220.667 82.5,220C 81.1667,219.667 79.8333,219.333 78.5,219C 78.5012,217.601 78.8346,216.101 79.5,214.5C 76.6496,212.513 74.6496,210.346 73.5,208C 74.1667,206.667 74.8333,205.333 75.5,204C 74.2893,203.213 73.2893,202.546 72.5,202C 72.9054,201.055 73.572,200.388 74.5,200C 73.3279,199.581 72.3279,198.915 71.5,198C 73.9011,197.195 73.7344,196.362 71,195.5C 70.7266,193.899 70.2266,192.399 69.5,191C 70.8146,189.605 70.4812,188.605 68.5,188C 69.6654,186.132 69.332,184.298 67.5,182.5C 68.6096,180.504 68.2763,178.671 66.5,177C 67.0606,175.434 66.3939,174.101 64.5,173C 65.3859,169.773 65.3859,167.439 64.5,166C 60.9984,163.989 60.9984,162.656 64.5,162C 62.9963,160.663 61.9963,158.996 61.5,157C 61.4134,154.87 61.4134,152.703 61.5,150.5C 60.8333,149.5 60.1667,148.5 59.5,147.5C 60.1771,144.815 60.1771,141.982 59.5,139C 61.7342,135.847 62.0675,132.847 60.5,130C 62.6403,128.004 64.9737,125.504 67.5,122.5C 67.5,123.167 67.8333,123.5 68.5,123.5C 68.8984,127.761 69.8984,131.761 71.5,135.5C 73.636,145.236 75.9693,154.902 78.5,164.5C 79.9138,170.569 81.5805,176.569 83.5,182.5C 84.8744,188.674 86.5411,194.674 88.5,200.5C 88.7054,203.988 89.5387,207.321 91,210.5C 92.8527,212.592 95.1861,213.592 98,213.5C 127.365,205.617 156.865,198.284 186.5,191.5C 189.142,195.148 191.809,198.815 194.5,202.5C 192.995,203.842 192.328,205.508 192.5,207.5C 200.5,207.5 208.5,207.5 216.5,207.5C 215.539,204.672 215.705,202.005 217,199.5C 217.499,193.843 217.666,188.176 217.5,182.5C 224.682,181.364 231.682,179.53 238.5,177C 240.726,175.38 242.06,173.214 242.5,170.5C 241.787,166.957 240.787,163.623 239.5,160.5C 239.5,160.167 239.5,159.833 239.5,159.5C 240.5,159.5 241.5,159.5 242.5,159.5C 247.353,159.187 252.02,158.521 256.5,157.5C 260.182,157.665 263.848,157.499 267.5,157C 268.416,156.722 269.082,156.222 269.5,155.5C 270.79,154.942 271.623,153.942 272,152.5C 271.779,132.787 270.612,113.121 268.5,93.5C 268.658,90.0977 268.324,86.7644 267.5,83.5C 267.693,79.4338 267.36,75.4338 266.5,71.5C 266.5,69.8333 266.5,68.1667 266.5,66.5 Z"/></g>
<g><path style="opacity:1" fill="#adc4f2" d="M 221.5,76.5 C 223.857,76.3367 226.19,76.5034 228.5,77C 230.404,84.6953 230.904,92.5287 230,100.5C 228.301,101.406 226.467,101.739 224.5,101.5C 221.877,93.6745 219.877,85.6745 218.5,77.5C 219.791,77.7373 220.791,77.404 221.5,76.5 Z"/></g>
<g><path style="opacity:1" fill="#eca4e4" d="M 135.5,92.5 C 135.5,93.1667 135.167,93.5 134.5,93.5C 133.833,93.5 133.167,93.5 132.5,93.5C 133.038,91.8828 133.371,90.2161 133.5,88.5C 132.178,88.33 131.011,88.6634 130,89.5C 126.833,85.4721 124.333,85.9721 122.5,91C 123.449,91.6172 124.282,91.4506 125,90.5C 125.359,93.5443 126.026,93.8776 127,91.5C 128.087,93.9316 128.587,93.5983 128.5,90.5C 129.5,90.5 130.5,90.5 131.5,90.5C 131.5,91.5 131.5,92.5 131.5,93.5C 127.41,95.0749 123.077,96.0749 118.5,96.5C 116.328,91.1518 117.662,86.9852 122.5,84C 129.94,82.2941 134.273,85.1274 135.5,92.5 Z"/></g>
<g><path style="opacity:1" fill="#eceefa" d="M 176.5,112.5 C 173.908,108.195 170.908,104.028 167.5,100C 163.063,98.7596 158.73,98.2596 154.5,98.5C 154.104,95.5178 154.771,92.8511 156.5,90.5C 157.665,91.4911 158.832,92.4911 160,93.5C 162.844,90.6636 166.01,88.1636 169.5,86C 170.448,85.5172 171.448,85.3505 172.5,85.5C 173.244,89.1185 173.577,92.7852 173.5,96.5C 175.527,96.3379 177.527,96.5045 179.5,97C 178.624,98.586 177.624,100.086 176.5,101.5C 179.413,103.901 179.079,105.234 175.5,105.5C 175.993,107.806 176.326,110.139 176.5,112.5 Z"/></g>
<g><path style="opacity:1" fill="#afbffc" d="M 204.5,94.5 C 203.448,94.3505 202.448,94.5172 201.5,95C 203.192,96.4007 203.859,98.2341 203.5,100.5C 201.343,98.5879 199.009,96.9213 196.5,95.5C 194.474,91.4187 193.474,87.0854 193.5,82.5C 196.505,82.253 199.005,83.253 201,85.5C 202.273,88.4893 203.439,91.4893 204.5,94.5 Z"/></g>
<g><path style="opacity:1" fill="#f3ceee" d="M 132.5,93.5 C 132.167,93.5 131.833,93.5 131.5,93.5C 131.5,92.5 131.5,91.5 131.5,90.5C 130.5,90.5 129.5,90.5 128.5,90.5C 128.587,93.5983 128.087,93.9316 127,91.5C 126.026,93.8776 125.359,93.5443 125,90.5C 124.282,91.4506 123.449,91.6172 122.5,91C 124.333,85.9721 126.833,85.4721 130,89.5C 131.011,88.6634 132.178,88.33 133.5,88.5C 133.371,90.2161 133.038,91.8828 132.5,93.5 Z"/></g>
<g><path style="opacity:1" fill="#3e5189" d="M 267.5,83.5 C 268.324,86.7644 268.658,90.0977 268.5,93.5C 266.606,94.0476 264.94,95.0476 263.5,96.5C 262.85,94.8164 261.85,93.4831 260.5,92.5C 260.389,91.8826 260.056,91.3826 259.5,91C 262.036,88.295 264.703,85.795 267.5,83.5 Z"/></g>
<g><path style="opacity:1" fill="#3f528c" d="M 256.5,96.5 C 255.5,96.5 254.5,96.5 253.5,96.5C 253.5,98.1667 253.5,99.8333 253.5,101.5C 255.099,101.768 256.432,101.434 257.5,100.5C 258.222,100.082 258.722,99.4158 259,98.5C 261.547,104.442 260.713,109.775 256.5,114.5C 254.316,116.585 251.649,117.585 248.5,117.5C 248.617,115.516 247.95,113.85 246.5,112.5C 248.908,111.547 251.075,110.213 253,108.5C 253.789,106.288 253.622,104.288 252.5,102.5C 251.714,100.265 250.048,99.2649 247.5,99.5C 244.623,99.381 242.956,100.714 242.5,103.5C 242.167,103.5 241.833,103.5 241.5,103.5C 239.5,103.5 237.5,103.5 235.5,103.5C 235.253,101.142 235.919,99.1417 237.5,97.5C 239.196,97.3146 240.529,96.4813 241.5,95C 244.155,94.4357 246.821,93.9357 249.5,93.5C 252.36,93.555 254.693,94.555 256.5,96.5 Z"/></g>
<g><path style="opacity:1" fill="#6cc098" d="M 196.5,95.5 C 199.009,96.9213 201.343,98.5879 203.5,100.5C 204.301,102.042 204.634,103.708 204.5,105.5C 198.066,106.795 192.732,105.128 188.5,100.5C 188.33,99.1779 188.663,98.0113 189.5,97C 191.677,95.7978 194.011,95.2978 196.5,95.5 Z"/></g>
<g><path style="opacity:1" fill="#97a6ca" d="M 256.5,96.5 C 257.234,97.7079 257.567,99.0413 257.5,100.5C 256.432,101.434 255.099,101.768 253.5,101.5C 253.5,99.8333 253.5,98.1667 253.5,96.5C 254.5,96.5 255.5,96.5 256.5,96.5 Z"/></g>
<g><path style="opacity:1" fill="#caccdf" d="M 154.5,98.5 C 158.73,98.2596 163.063,98.7596 167.5,100C 170.908,104.028 173.908,108.195 176.5,112.5C 176.672,113.492 176.338,114.158 175.5,114.5C 174.054,113.387 172.387,113.22 170.5,114C 159.622,117.108 148.955,120.775 138.5,125C 139.756,125.417 140.423,126.25 140.5,127.5C 140.489,129.017 139.823,130.184 138.5,131C 136.751,131.785 135.084,132.618 133.5,133.5C 134.043,132.258 134.377,130.925 134.5,129.5C 133.012,127.014 132.012,124.347 131.5,121.5C 132.403,114.861 135.069,109.028 139.5,104C 137.527,103.505 135.527,103.338 133.5,103.5C 136.184,102.268 139.017,102.268 142,103.5C 143.684,103.317 143.85,102.65 142.5,101.5C 146.279,99.686 150.279,98.686 154.5,98.5 Z"/></g>
<g><path style="opacity:1" fill="#3e579e" d="M 204.5,94.5 C 209.791,97.9569 214.291,102.29 218,107.5C 220.527,111.742 221.027,116.075 219.5,120.5C 210.143,117.703 202.143,119.703 195.5,126.5C 192.387,124.195 188.887,122.529 185,121.5C 182.775,122.096 180.608,122.763 178.5,123.5C 177.867,115.551 179.034,107.884 182,100.5C 184.156,97.9387 186.323,97.9387 188.5,100.5C 192.732,105.128 198.066,106.795 204.5,105.5C 204.634,103.708 204.301,102.042 203.5,100.5C 203.859,98.2341 203.192,96.4007 201.5,95C 202.448,94.5172 203.448,94.3505 204.5,94.5 Z"/></g>
<g><path style="opacity:1" fill="#a2b7e5" d="M 252.5,102.5 C 249.167,102.833 245.833,103.167 242.5,103.5C 242.956,100.714 244.623,99.381 247.5,99.5C 250.048,99.2649 251.714,100.265 252.5,102.5 Z"/></g>
<g><path style="opacity:1" fill="#d0dffb" d="M 133.5,103.5 C 135.527,103.338 137.527,103.505 139.5,104C 135.069,109.028 132.403,114.861 131.5,121.5C 130.167,121.5 128.833,121.5 127.5,121.5C 126.833,120.5 126.167,119.5 125.5,118.5C 125.552,116.097 125.219,113.764 124.5,111.5C 126.88,108.119 129.88,105.453 133.5,103.5 Z"/></g>
<g><path style="opacity:1" fill="#344b84" d="M 110.5,93.5 C 110.972,95.5313 111.972,97.1979 113.5,98.5C 115.403,98.2041 117.07,97.5375 118.5,96.5C 123.077,96.0749 127.41,95.0749 131.5,93.5C 131.833,93.5 132.167,93.5 132.5,93.5C 133.167,93.5 133.833,93.5 134.5,93.5C 137.473,95.8062 140.14,98.4728 142.5,101.5C 143.85,102.65 143.684,103.317 142,103.5C 139.017,102.268 136.184,102.268 133.5,103.5C 129.88,105.453 126.88,108.119 124.5,111.5C 122.183,112.907 119.683,113.907 117,114.5C 109.509,110.35 104.009,112.017 100.5,119.5C 87.4916,124.478 81.8249,120.145 83.5,106.5C 92.3143,103.799 101.314,101.465 110.5,99.5C 110.5,97.5 110.5,95.5 110.5,93.5 Z"/></g>
<g><path style="opacity:1" fill="#ceddf8" d="M 83.5,106.5 C 81.8249,120.145 87.4916,124.478 100.5,119.5C 100.5,119.833 100.5,120.167 100.5,120.5C 99.5,120.833 98.8333,121.5 98.5,122.5C 97.7326,123.172 97.0659,124.005 96.5,125C 91.0494,125.244 85.7161,126.077 80.5,127.5C 78.471,124.473 75.8044,122.14 72.5,120.5C 71.0986,121.521 69.7653,122.521 68.5,123.5C 67.8333,123.5 67.5,123.167 67.5,122.5C 65.8456,118.457 66.1789,114.623 68.5,111C 73.182,108.413 78.182,106.913 83.5,106.5 Z"/></g>
<g><path style="opacity:1" fill="#3f568e" d="M 162.5,107.5 C 165.001,107.826 166.168,109.159 166,111.5C 163.324,113.433 160.491,114.6 157.5,115C 156.549,114.282 156.383,113.449 157,112.5C 159.191,111.167 161.024,109.5 162.5,107.5 Z"/></g>
<g><path style="opacity:1" fill="#e8d19d" d="M 209.5,109.5 C 211.753,108.145 213.42,108.812 214.5,111.5C 213.132,116.078 210.132,117.578 205.5,116C 203.162,113.89 203.329,111.723 206,109.5C 206.154,112.525 207.654,114.191 210.5,114.5C 210.784,112.585 210.451,110.919 209.5,109.5 Z"/></g>
<g><path style="opacity:1" fill="#a5c4f6" d="M 182.5,111.5 C 185.297,111.967 186.631,113.633 186.5,116.5C 185.167,116.5 183.833,116.5 182.5,116.5C 182.5,114.833 182.5,113.167 182.5,111.5 Z"/></g>
<g><path style="opacity:1" fill="#f7c593" d="M 124.5,111.5 C 125.219,113.764 125.552,116.097 125.5,118.5C 116.894,116.757 108.561,117.424 100.5,120.5C 100.5,120.167 100.5,119.833 100.5,119.5C 104.009,112.017 109.509,110.35 117,114.5C 119.683,113.907 122.183,112.907 124.5,111.5 Z"/></g>
<g><path style="opacity:1" fill="#3c538c" d="M 150.5,113.5 C 151.5,113.5 152.5,113.5 153.5,113.5C 153.714,115.144 153.38,116.644 152.5,118C 149.518,118.498 146.518,118.665 143.5,118.5C 143.5,117.167 143.5,115.833 143.5,114.5C 146.059,114.802 148.393,114.468 150.5,113.5 Z"/></g>
<g><path style="opacity:1" fill="#ead29d" d="M 197.5,112.5 C 202.375,114.309 202.708,116.809 198.5,120C 196.5,120.667 194.5,120.667 192.5,120C 189.92,117.762 190.087,115.596 193,113.5C 193.154,116.525 194.654,118.191 197.5,118.5C 197.5,116.5 197.5,114.5 197.5,112.5 Z"/></g>
<g><path style="opacity:1" fill="#e3e6f4" d="M 219.5,120.5 C 222.47,121.653 225.137,123.32 227.5,125.5C 227.167,126.167 226.833,126.833 226.5,127.5C 223.271,125.718 219.937,124.218 216.5,123C 207.969,120.773 201.302,123.273 196.5,130.5C 196.167,130.5 195.833,130.5 195.5,130.5C 194.595,129.036 194.595,127.702 195.5,126.5C 202.143,119.703 210.143,117.703 219.5,120.5 Z"/></g>
<g><path style="opacity:1" fill="#eceef4" d="M 252.5,102.5 C 253.622,104.288 253.789,106.288 253,108.5C 251.075,110.213 248.908,111.547 246.5,112.5C 247.95,113.85 248.617,115.516 248.5,117.5C 251.649,117.585 254.316,116.585 256.5,114.5C 257.833,118.167 257.833,121.833 256.5,125.5C 251.031,126.075 245.698,126.741 240.5,127.5C 237.5,127.5 234.5,127.5 231.5,127.5C 230.596,126.791 230.263,125.791 230.5,124.5C 230.389,123.883 230.056,123.383 229.5,123C 231.577,122.808 233.577,122.308 235.5,121.5C 233.865,120.319 232.198,120.319 230.5,121.5C 229.269,120.349 229.269,119.183 230.5,118C 233.226,117.818 235.893,117.318 238.5,116.5C 235.232,116.514 231.899,116.181 228.5,115.5C 226.868,112.009 225.868,108.342 225.5,104.5C 231.026,104.821 236.36,104.488 241.5,103.5C 241.833,103.5 242.167,103.5 242.5,103.5C 245.833,103.167 249.167,102.833 252.5,102.5 Z"/></g>
<g><path style="opacity:1" fill="#d78961" d="M 125.5,118.5 C 126.167,119.5 126.833,120.5 127.5,121.5C 120.212,123.016 112.712,124.016 105,124.5C 102.39,124.467 100.223,123.8 98.5,122.5C 98.8333,121.5 99.5,120.833 100.5,120.5C 108.561,117.424 116.894,116.757 125.5,118.5 Z"/></g>
<g><path style="opacity:1" fill="#465b91" d="M 133.5,121.5 C 134.675,121.281 135.675,121.614 136.5,122.5C 134.948,123.798 133.948,123.465 133.5,121.5 Z"/></g>
<g><path style="opacity:1" fill="#aac9f9" d="M 154.5,121.5 C 154.56,120.957 154.893,120.624 155.5,120.5C 156.167,121.5 156.833,122.5 157.5,123.5C 158.736,122.754 160.07,122.421 161.5,122.5C 162.833,122.5 164.167,122.5 165.5,122.5C 165.796,124.403 166.463,126.07 167.5,127.5C 168.038,129.117 168.371,130.784 168.5,132.5C 166.139,132.674 163.806,133.007 161.5,133.5C 163.571,132.213 163.904,130.547 162.5,128.5C 161.277,127.386 159.944,127.219 158.5,128C 144.899,132.048 132.232,137.881 120.5,145.5C 118.955,146.452 117.288,146.785 115.5,146.5C 115.286,144.856 115.62,143.356 116.5,142C 120.896,139.473 125.229,136.973 129.5,134.5C 130.833,134.167 132.167,133.833 133.5,133.5C 135.084,132.618 136.751,131.785 138.5,131C 139.823,130.184 140.489,129.017 140.5,127.5C 141.222,127.918 141.722,128.584 142,129.5C 144.311,128.603 146.144,127.27 147.5,125.5C 149.836,126.304 152.17,125.971 154.5,124.5C 155.776,123.386 155.776,122.386 154.5,121.5 Z"/></g>
<g><path style="opacity:1" fill="#5472be" d="M 260.5,92.5 C 261.85,93.4831 262.85,94.8164 263.5,96.5C 264.94,95.0476 266.606,94.0476 268.5,93.5C 270.612,113.121 271.779,132.787 272,152.5C 271.623,153.942 270.79,154.942 269.5,155.5C 268.883,155.389 268.383,155.056 268,154.5C 267.534,149.891 266.7,145.391 265.5,141C 265.833,140.667 266.167,140.333 266.5,140C 264.514,134.106 263.847,128.106 264.5,122C 261.669,117.985 261.336,113.985 263.5,110C 261.426,106.317 261.093,102.484 262.5,98.5C 260.973,96.8067 259.64,94.9734 258.5,93C 259.094,92.5357 259.761,92.369 260.5,92.5 Z"/></g>
<g><path style="opacity:1" fill="#3d538a" d="M 175.5,114.5 C 174.5,114.5 173.5,114.5 172.5,114.5C 173.492,117.823 174.492,121.156 175.5,124.5C 173.347,126.339 170.68,127.339 167.5,127.5C 166.463,126.07 165.796,124.403 165.5,122.5C 168.128,121.375 168.961,119.375 168,116.5C 167.059,118.061 165.892,119.395 164.5,120.5C 160.218,118.725 159.218,119.392 161.5,122.5C 160.07,122.421 158.736,122.754 157.5,123.5C 156.833,122.5 156.167,121.5 155.5,120.5C 154.893,120.624 154.56,120.957 154.5,121.5C 153.766,122.929 152.599,123.929 151,124.5C 149.211,123.591 147.377,123.424 145.5,124C 146.044,124.717 146.711,125.217 147.5,125.5C 146.144,127.27 144.311,128.603 142,129.5C 141.722,128.584 141.222,127.918 140.5,127.5C 140.423,126.25 139.756,125.417 138.5,125C 148.955,120.775 159.622,117.108 170.5,114C 172.387,113.22 174.054,113.387 175.5,114.5 Z"/></g>
<g><path style="opacity:1" fill="#e9ecf6" d="M 154.5,121.5 C 155.776,122.386 155.776,123.386 154.5,124.5C 152.17,125.971 149.836,126.304 147.5,125.5C 146.711,125.217 146.044,124.717 145.5,124C 147.377,123.424 149.211,123.591 151,124.5C 152.599,123.929 153.766,122.929 154.5,121.5 Z"/></g>
<g><path style="opacity:1" fill="#eaedf5" d="M 165.5,122.5 C 164.167,122.5 162.833,122.5 161.5,122.5C 159.218,119.392 160.218,118.725 164.5,120.5C 165.892,119.395 167.059,118.061 168,116.5C 168.961,119.375 168.128,121.375 165.5,122.5 Z"/></g>
<g><path style="opacity:1" fill="#f3edcc" d="M 80.5,127.5 C 77.3337,129.154 75.667,131.821 75.5,135.5C 74.1667,135.5 72.8333,135.5 71.5,135.5C 69.8984,131.761 68.8984,127.761 68.5,123.5C 69.7653,122.521 71.0986,121.521 72.5,120.5C 75.8044,122.14 78.471,124.473 80.5,127.5 Z"/></g>
<g><path style="opacity:1" fill="#cdcfe2" d="M 195.5,126.5 C 194.595,127.702 194.595,129.036 195.5,130.5C 189.876,134.376 184.209,134.376 178.5,130.5C 175.766,133.657 172.432,134.324 168.5,132.5C 168.371,130.784 168.038,129.117 167.5,127.5C 170.68,127.339 173.347,126.339 175.5,124.5C 176.791,124.737 177.791,124.404 178.5,123.5C 180.608,122.763 182.775,122.096 185,121.5C 188.887,122.529 192.387,124.195 195.5,126.5 Z"/></g>
<g><path style="opacity:1" fill="#4f64a7" d="M 230.5,124.5 C 230.263,125.791 230.596,126.791 231.5,127.5C 233.922,129.048 233.922,130.714 231.5,132.5C 228.833,131.833 227.167,130.167 226.5,127.5C 226.833,126.833 227.167,126.167 227.5,125.5C 228.391,124.89 229.391,124.557 230.5,124.5 Z"/></g>
<g><path style="opacity:1" fill="#2f2e2f" d="M 128.5,133.5 C 124.833,133.5 121.167,133.5 117.5,133.5C 117.001,130.611 115.501,129.944 113,131.5C 112.517,132.448 112.351,133.448 112.5,134.5C 111.167,134.5 109.833,134.5 108.5,134.5C 105.949,131.77 104.616,132.437 104.5,136.5C 102.5,137.167 100.5,137.833 98.5,138.5C 97.687,132.431 100.687,128.931 107.5,128C 113.5,127.333 119.5,127.333 125.5,128C 128.035,128.928 129.035,130.762 128.5,133.5 Z"/></g>
<g><path style="opacity:1" fill="#f3c08e" d="M 127.5,121.5 C 128.833,121.5 130.167,121.5 131.5,121.5C 132.012,124.347 133.012,127.014 134.5,129.5C 134.377,130.925 134.043,132.258 133.5,133.5C 132.167,133.833 130.833,134.167 129.5,134.5C 129.5,133.833 129.167,133.5 128.5,133.5C 129.035,130.762 128.035,128.928 125.5,128C 119.5,127.333 113.5,127.333 107.5,128C 100.687,128.931 97.687,132.431 98.5,138.5C 97.3586,140.451 97.3586,142.451 98.5,144.5C 94.8333,144.5 91.1667,144.5 87.5,144.5C 87.7947,146.735 87.4614,148.735 86.5,150.5C 87.864,141.858 84.1973,136.858 75.5,135.5C 75.667,131.821 77.3337,129.154 80.5,127.5C 85.7161,126.077 91.0494,125.244 96.5,125C 97.0659,124.005 97.7326,123.172 98.5,122.5C 100.223,123.8 102.39,124.467 105,124.5C 112.712,124.016 120.212,123.016 127.5,121.5 Z"/></g>
<g><path style="opacity:1" fill="#cc9567" d="M 226.5,127.5 C 227.167,130.167 228.833,131.833 231.5,132.5C 233.377,135.592 234.711,138.925 235.5,142.5C 234.807,143.518 234.141,144.518 233.5,145.5C 234.5,145.5 235.5,145.5 236.5,145.5C 236.704,148.518 237.037,151.518 237.5,154.5C 237.359,160.354 234.359,164.687 228.5,167.5C 225.644,157.572 219.311,154.239 209.5,157.5C 209.883,149.216 205.883,145.216 197.5,145.5C 197.5,145.167 197.5,144.833 197.5,144.5C 197.763,140.4 197.43,136.4 196.5,132.5C 196.5,131.833 196.5,131.167 196.5,130.5C 201.302,123.273 207.969,120.773 216.5,123C 219.937,124.218 223.271,125.718 226.5,127.5 Z"/></g>
<g><path style="opacity:1" fill="#b0b1bd" d="M 195.5,130.5 C 195.833,130.5 196.167,130.5 196.5,130.5C 196.5,131.167 196.5,131.833 196.5,132.5C 191.284,133.923 185.951,134.756 180.5,135C 179.975,135.692 179.308,136.192 178.5,136.5C 171.971,134.73 165.304,134.064 158.5,134.5C 159.209,133.596 160.209,133.263 161.5,133.5C 163.806,133.007 166.139,132.674 168.5,132.5C 172.432,134.324 175.766,133.657 178.5,130.5C 184.209,134.376 189.876,134.376 195.5,130.5 Z"/></g>
<g><path style="opacity:1" fill="#cdc885" d="M 117.5,133.5 C 115.883,134.038 114.216,134.371 112.5,134.5C 112.351,133.448 112.517,132.448 113,131.5C 115.501,129.944 117.001,130.611 117.5,133.5 Z"/></g>
<g><path style="opacity:1" fill="#e0d989" d="M 108.5,134.5 C 107.486,135.674 106.153,136.34 104.5,136.5C 104.616,132.437 105.949,131.77 108.5,134.5 Z"/></g>
<g><path style="opacity:1" fill="#40599f" d="M 117.5,133.5 C 121.167,133.5 124.833,133.5 128.5,133.5C 129.167,133.5 129.5,133.833 129.5,134.5C 125.229,136.973 120.896,139.473 116.5,142C 115.62,143.356 115.286,144.856 115.5,146.5C 115.328,147.492 115.662,148.158 116.5,148.5C 117.494,150.334 117.494,152.001 116.5,153.5C 111.924,153.562 107.591,152.895 103.5,151.5C 103.5,151.167 103.5,150.833 103.5,150.5C 107.316,151.211 110.316,150.045 112.5,147C 112.43,146.235 112.097,145.735 111.5,145.5C 109.693,143.555 107.36,142.555 104.5,142.5C 102.97,142.64 101.97,143.307 101.5,144.5C 101.5,145.167 101.167,145.5 100.5,145.5C 99.8333,145.167 99.1667,144.833 98.5,144.5C 97.3586,142.451 97.3586,140.451 98.5,138.5C 100.5,137.833 102.5,137.167 104.5,136.5C 106.153,136.34 107.486,135.674 108.5,134.5C 109.833,134.5 111.167,134.5 112.5,134.5C 114.216,134.371 115.883,134.038 117.5,133.5 Z"/></g>
<g><path style="opacity:1" fill="#cccee1" d="M 196.5,132.5 C 197.43,136.4 197.763,140.4 197.5,144.5C 189.772,144.628 183.439,147.628 178.5,153.5C 178.253,148.226 178.087,142.892 178,137.5C 176.359,146.772 175.192,156.106 174.5,165.5C 172.833,165.5 171.167,165.5 169.5,165.5C 163.053,163.602 156.886,164.269 151,167.5C 150.228,167.355 149.561,167.022 149,166.5C 148.79,164.942 148.29,163.609 147.5,162.5C 145.731,157.844 144.065,152.844 142.5,147.5C 144.442,144.221 146.776,141.221 149.5,138.5C 152.393,136.886 155.393,135.553 158.5,134.5C 165.304,134.064 171.971,134.73 178.5,136.5C 179.308,136.192 179.975,135.692 180.5,135C 185.951,134.756 191.284,133.923 196.5,132.5 Z"/></g>
<g><path style="opacity:1" fill="#c2cde5" d="M 231.5,127.5 C 234.5,127.5 237.5,127.5 240.5,127.5C 240.334,131.514 240.501,135.514 241,139.5C 242.298,140.56 243.465,141.726 244.5,143C 243.576,144.811 242.743,144.645 242,142.5C 241.833,143.5 241.667,144.5 241.5,145.5C 242.315,150.132 242.648,154.799 242.5,159.5C 241.5,159.5 240.5,159.5 239.5,159.5C 239.204,157.597 238.537,155.93 237.5,154.5C 237.037,151.518 236.704,148.518 236.5,145.5C 235.5,145.5 234.5,145.5 233.5,145.5C 234.141,144.518 234.807,143.518 235.5,142.5C 234.711,138.925 233.377,135.592 231.5,132.5C 233.922,130.714 233.922,129.048 231.5,127.5 Z"/></g>
<g><path style="opacity:1" fill="#6a9cfb" d="M 161.5,133.5 C 160.209,133.263 159.209,133.596 158.5,134.5C 155.393,135.553 152.393,136.886 149.5,138.5C 148.656,136.241 146.989,135.241 144.5,135.5C 144.649,136.552 144.483,137.552 144,138.5C 142.667,137.167 141.333,137.167 140,138.5C 140.195,140.126 140.195,141.793 140,143.5C 139.375,140.294 137.709,139.294 135,140.5C 135.615,142.756 135.948,145.089 136,147.5C 131.691,139.48 130.025,140.147 131,149.5C 129.506,148.253 128.006,148.253 126.5,149.5C 128.038,153.407 129.704,157.24 131.5,161C 130.484,161.519 129.818,162.353 129.5,163.5C 132.063,169.261 134.396,175.094 136.5,181C 136.272,181.399 135.938,181.565 135.5,181.5C 133.526,179.572 132.026,177.239 131,174.5C 128.118,165.735 124.951,157.068 121.5,148.5C 119.701,147.212 118.035,147.212 116.5,148.5C 115.662,148.158 115.328,147.492 115.5,146.5C 117.288,146.785 118.955,146.452 120.5,145.5C 132.232,137.881 144.899,132.048 158.5,128C 159.944,127.219 161.277,127.386 162.5,128.5C 163.904,130.547 163.571,132.213 161.5,133.5 Z"/></g>
<g><path style="opacity:1" fill="#74a5fd" d="M 149.5,138.5 C 146.776,141.221 144.442,144.221 142.5,147.5C 144.065,152.844 145.731,157.844 147.5,162.5C 146.178,162.33 145.011,162.663 144,163.5C 143,161.5 142,159.5 141,157.5C 144.223,167.967 148.057,178.301 152.5,188.5C 145.566,188.711 139.899,186.378 135.5,181.5C 135.938,181.565 136.272,181.399 136.5,181C 134.396,175.094 132.063,169.261 129.5,163.5C 129.818,162.353 130.484,161.519 131.5,161C 129.704,157.24 128.038,153.407 126.5,149.5C 128.006,148.253 129.506,148.253 131,149.5C 130.025,140.147 131.691,139.48 136,147.5C 135.948,145.089 135.615,142.756 135,140.5C 137.709,139.294 139.375,140.294 140,143.5C 140.195,141.793 140.195,140.126 140,138.5C 141.333,137.167 142.667,137.167 144,138.5C 144.483,137.552 144.649,136.552 144.5,135.5C 146.989,135.241 148.656,136.241 149.5,138.5 Z"/></g>
<g><path style="opacity:1" fill="#d8def7" d="M 218.5,137.5 C 220.379,138.341 222.379,138.675 224.5,138.5C 224.296,140.685 223.63,142.685 222.5,144.5C 216.744,147.922 214.244,146.255 215,139.5C 216.302,138.915 217.469,138.249 218.5,137.5 Z"/></g>
<g><path style="opacity:1" fill="#d2d7ea" d="M 111.5,145.5 C 111.565,145.938 111.399,146.272 111,146.5C 110.311,145.643 109.478,144.977 108.5,144.5C 106.146,144.542 103.812,144.542 101.5,144.5C 101.97,143.307 102.97,142.64 104.5,142.5C 107.36,142.555 109.693,143.555 111.5,145.5 Z"/></g>
<g><path style="opacity:1" fill="#f2ecc5" d="M 98.5,144.5 C 99.1667,144.833 99.8333,145.167 100.5,145.5C 100.5,146.167 100.833,146.5 101.5,146.5C 101.586,147.496 101.252,148.329 100.5,149C 101.448,149.483 102.448,149.649 103.5,149.5C 103.5,149.833 103.5,150.167 103.5,150.5C 103.5,150.833 103.5,151.167 103.5,151.5C 101.143,151.337 98.8098,151.503 96.5,152C 94.2295,154.782 91.5628,156.949 88.5,158.5C 87.1667,158.5 85.8333,158.5 84.5,158.5C 84.5858,157.504 84.2524,156.671 83.5,156C 85.16,154.512 86.16,152.679 86.5,150.5C 87.4614,148.735 87.7947,146.735 87.5,144.5C 91.1667,144.5 94.8333,144.5 98.5,144.5 Z"/></g>
<g><path style="opacity:1" fill="#6f6984" d="M 233.5,145.5 C 232.86,147.332 231.86,147.665 230.5,146.5C 231.325,145.614 232.325,145.281 233.5,145.5 Z"/></g>
<g><path style="opacity:1" fill="#9bb1e1" d="M 256.5,125.5 C 255.973,136.087 255.973,146.754 256.5,157.5C 252.02,158.521 247.353,159.187 242.5,159.5C 242.648,154.799 242.315,150.132 241.5,145.5C 241.667,144.5 241.833,143.5 242,142.5C 242.743,144.645 243.576,144.811 244.5,143C 243.465,141.726 242.298,140.56 241,139.5C 240.501,135.514 240.334,131.514 240.5,127.5C 245.698,126.741 251.031,126.075 256.5,125.5 Z"/></g>
<g><path style="opacity:1" fill="#cb9668" d="M 71.5,135.5 C 72.8333,135.5 74.1667,135.5 75.5,135.5C 84.1973,136.858 87.864,141.858 86.5,150.5C 86.16,152.679 85.16,154.512 83.5,156C 84.2524,156.671 84.5858,157.504 84.5,158.5C 83.05,160.995 81.05,162.995 78.5,164.5C 75.9693,154.902 73.636,145.236 71.5,135.5 Z"/></g>
<g><path style="opacity:1" fill="#a8b2f1" d="M 218.5,137.5 C 217.469,138.249 216.302,138.915 215,139.5C 214.244,146.255 216.744,147.922 222.5,144.5C 222.178,148.976 219.844,150.476 215.5,149C 211.965,146.293 210.798,142.793 212,138.5C 214.016,136.392 216.183,136.058 218.5,137.5 Z"/></g>
<g><path style="opacity:1" fill="#b5b6c1" d="M 197.5,144.5 C 197.5,144.833 197.5,145.167 197.5,145.5C 186.777,148.345 179.777,155.011 176.5,165.5C 175.833,165.5 175.167,165.5 174.5,165.5C 175.192,156.106 176.359,146.772 178,137.5C 178.087,142.892 178.253,148.226 178.5,153.5C 183.439,147.628 189.772,144.628 197.5,144.5 Z"/></g>
<g><path style="opacity:1" fill="#eef0f7" d="M 101.5,146.5 C 102.873,146.343 104.207,146.51 105.5,147C 104.66,148.666 105.16,148.833 107,147.5C 107.167,147.833 107.333,148.167 107.5,148.5C 106.311,149.429 104.978,149.762 103.5,149.5C 102.448,149.649 101.448,149.483 100.5,149C 101.252,148.329 101.586,147.496 101.5,146.5 Z"/></g>
<g><path style="opacity:1" fill="#a8c9fb" d="M 135.5,181.5 C 139.899,186.378 145.566,188.711 152.5,188.5C 152.833,188.5 153.167,188.5 153.5,188.5C 155.857,188.663 158.19,188.497 160.5,188C 162.696,186.301 164.696,184.467 166.5,182.5C 167.627,183.122 168.627,183.955 169.5,185C 167.667,187.998 165.334,190.498 162.5,192.5C 155.825,192.666 149.158,192.5 142.5,192C 140.14,190.82 137.807,189.653 135.5,188.5C 130.196,184.503 126.862,179.169 125.5,172.5C 123.388,167.274 121.555,161.94 120,156.5C 119.583,155.244 118.75,154.577 117.5,154.5C 116.833,154.5 116.5,154.167 116.5,153.5C 117.494,152.001 117.494,150.334 116.5,148.5C 118.035,147.212 119.701,147.212 121.5,148.5C 124.951,157.068 128.118,165.735 131,174.5C 132.026,177.239 133.526,179.572 135.5,181.5 Z"/></g>
<g><path style="opacity:1" fill="#909dc8" d="M 101.5,144.5 C 103.812,144.542 106.146,144.542 108.5,144.5C 109.478,144.977 110.311,145.643 111,146.5C 111.399,146.272 111.565,145.938 111.5,145.5C 112.097,145.735 112.43,146.235 112.5,147C 110.316,150.045 107.316,151.211 103.5,150.5C 103.5,150.167 103.5,149.833 103.5,149.5C 104.978,149.762 106.311,149.429 107.5,148.5C 107.333,148.167 107.167,147.833 107,147.5C 105.16,148.833 104.66,148.666 105.5,147C 104.207,146.51 102.873,146.343 101.5,146.5C 100.833,146.5 100.5,146.167 100.5,145.5C 101.167,145.5 101.5,145.167 101.5,144.5 Z"/></g>
<g><path style="opacity:1" fill="#c7c8da" d="M 197.5,145.5 C 205.883,145.216 209.883,149.216 209.5,157.5C 210.069,160.335 211.736,162.001 214.5,162.5C 214.833,164.833 216.167,166.167 218.5,166.5C 219.057,169.05 220.39,171.05 222.5,172.5C 218.27,173.22 213.937,173.887 209.5,174.5C 206.956,174.104 204.789,174.771 203,176.5C 201.33,174.302 199.33,173.968 197,175.5C 196.667,172.5 196.333,169.5 196,166.5C 194.274,165.424 192.441,165.257 190.5,166C 189.848,173.776 189.181,181.609 188.5,189.5C 187.686,187.234 187.186,184.9 187,182.5C 186.617,183.056 186.117,183.389 185.5,183.5C 182.438,184.47 179.438,185.304 176.5,186C 174.686,183.519 174.02,180.685 174.5,177.5C 175.795,173.733 176.461,169.733 176.5,165.5C 179.777,155.011 186.777,148.345 197.5,145.5 Z"/></g>
<g><path style="opacity:1" fill="#f8f9fc" d="M 103.5,151.5 C 107.591,152.895 111.924,153.562 116.5,153.5C 116.5,154.167 116.833,154.5 117.5,154.5C 117.466,157.199 118.133,159.699 119.5,162C 111.167,162.667 102.833,162.667 94.5,162C 91.9488,161.998 89.9488,161.164 88.5,159.5C 88.5,159.167 88.5,158.833 88.5,158.5C 91.5628,156.949 94.2295,154.782 96.5,152C 98.8098,151.503 101.143,151.337 103.5,151.5 Z"/></g>
<g><path style="opacity:1" fill="#385088" d="M 214.5,162.5 C 217.5,162.167 218.833,163.5 218.5,166.5C 216.167,166.167 214.833,164.833 214.5,162.5 Z"/></g>
<g><path style="opacity:1" fill="#e9eaf2" d="M 237.5,154.5 C 238.537,155.93 239.204,157.597 239.5,159.5C 239.5,159.833 239.5,160.167 239.5,160.5C 238.11,162.169 237.777,163.836 238.5,165.5C 236.068,166.75 233.734,168.25 231.5,170C 232.094,170.464 232.761,170.631 233.5,170.5C 230.003,171.402 226.337,172.069 222.5,172.5C 220.39,171.05 219.057,169.05 218.5,166.5C 218.833,163.5 217.5,162.167 214.5,162.5C 211.736,162.001 210.069,160.335 209.5,157.5C 219.311,154.239 225.644,157.572 228.5,167.5C 234.359,164.687 237.359,160.354 237.5,154.5 Z"/></g>
<g><path style="opacity:1" fill="#495d92" d="M 220.5,160.5 C 222.912,160.694 223.912,162.027 223.5,164.5C 222.167,164.5 220.833,164.5 219.5,164.5C 219.433,163.041 219.766,161.708 220.5,160.5 Z"/></g>
<g><path style="opacity:1" fill="#d2d3da" d="M 117.5,154.5 C 118.75,154.577 119.583,155.244 120,156.5C 121.555,161.94 123.388,167.274 125.5,172.5C 125.167,172.5 124.833,172.5 124.5,172.5C 115.815,172.464 107.149,172.797 98.5,173.5C 93.6311,170.632 89.6311,166.632 86.5,161.5C 86.8555,160.478 87.5222,159.811 88.5,159.5C 89.9488,161.164 91.9488,161.998 94.5,162C 102.833,162.667 111.167,162.667 119.5,162C 118.133,159.699 117.466,157.199 117.5,154.5 Z"/></g>
<g><path style="opacity:1" fill="#f9fafc" d="M 209.5,174.5 C 209.511,177.001 210.178,177.168 211.5,175C 216.822,174.507 218.822,177.007 217.5,182.5C 217.666,188.176 217.499,193.843 217,199.5C 215.705,202.005 215.539,204.672 216.5,207.5C 208.5,207.5 200.5,207.5 192.5,207.5C 192.328,205.508 192.995,203.842 194.5,202.5C 191.809,198.815 189.142,195.148 186.5,191.5C 184.35,189.078 184.017,186.411 185.5,183.5C 186.117,183.389 186.617,183.056 187,182.5C 187.186,184.9 187.686,187.234 188.5,189.5C 189.181,181.609 189.848,173.776 190.5,166C 192.441,165.257 194.274,165.424 196,166.5C 196.333,169.5 196.667,172.5 197,175.5C 199.33,173.968 201.33,174.302 203,176.5C 204.789,174.771 206.956,174.104 209.5,174.5 Z"/></g>
<g><path style="opacity:1" fill="#415ba0" d="M 238.5,165.5 C 238.5,168.833 236.833,170.5 233.5,170.5C 232.761,170.631 232.094,170.464 231.5,170C 233.734,168.25 236.068,166.75 238.5,165.5 Z"/></g>
<g><path style="opacity:1" fill="#679bfb" d="M 147.5,162.5 C 148.29,163.609 148.79,164.942 149,166.5C 149.561,167.022 150.228,167.355 151,167.5C 156.886,164.269 163.053,163.602 169.5,165.5C 170.919,166.451 172.585,166.784 174.5,166.5C 174.509,168.308 174.009,169.975 173,171.5C 171.605,170.185 170.605,170.519 170,172.5C 169.667,171.833 169.333,171.167 169,170.5C 168.259,171.641 167.425,171.641 166.5,170.5C 165.692,170.808 165.025,171.308 164.5,172C 166.497,174.492 167.497,177.325 167.5,180.5C 165.924,177.648 164.424,174.648 163,171.5C 161.89,169.963 160.39,169.297 158.5,169.5C 159.014,171.512 159.18,173.512 159,175.5C 158.313,172.574 156.48,171.241 153.5,171.5C 153.906,173.109 153.906,174.443 153.5,175.5C 152.573,173.887 151.739,172.221 151,170.5C 149.853,171.458 148.853,171.125 148,169.5C 147.5,170 147,170.5 146.5,171C 149.325,176.641 151.658,182.474 153.5,188.5C 153.167,188.5 152.833,188.5 152.5,188.5C 148.057,178.301 144.223,167.967 141,157.5C 142,159.5 143,161.5 144,163.5C 145.011,162.663 146.178,162.33 147.5,162.5 Z"/></g>
<g><path style="opacity:1" fill="#74a5fd" d="M 167.5,180.5 C 167.167,181.167 166.833,181.833 166.5,182.5C 164.696,184.467 162.696,186.301 160.5,188C 158.19,188.497 155.857,188.663 153.5,188.5C 151.658,182.474 149.325,176.641 146.5,171C 147,170.5 147.5,170 148,169.5C 148.853,171.125 149.853,171.458 151,170.5C 151.739,172.221 152.573,173.887 153.5,175.5C 153.906,174.443 153.906,173.109 153.5,171.5C 156.48,171.241 158.313,172.574 159,175.5C 159.18,173.512 159.014,171.512 158.5,169.5C 160.39,169.297 161.89,169.963 163,171.5C 164.424,174.648 165.924,177.648 167.5,180.5 Z"/></g>
<g><path style="opacity:1" fill="#7fa9f4" d="M 169.5,165.5 C 171.167,165.5 172.833,165.5 174.5,165.5C 175.167,165.5 175.833,165.5 176.5,165.5C 176.461,169.733 175.795,173.733 174.5,177.5C 173.292,174.956 171.292,173.622 168.5,173.5C 168.802,176.059 168.468,178.393 167.5,180.5C 167.497,177.325 166.497,174.492 164.5,172C 165.025,171.308 165.692,170.808 166.5,170.5C 167.425,171.641 168.259,171.641 169,170.5C 169.333,171.167 169.667,171.833 170,172.5C 170.605,170.519 171.605,170.185 173,171.5C 174.009,169.975 174.509,168.308 174.5,166.5C 172.585,166.784 170.919,166.451 169.5,165.5 Z"/></g>
<g><path style="opacity:1" fill="#a9e3ca" d="M 239.5,160.5 C 240.787,163.623 241.787,166.957 242.5,170.5C 242.06,173.214 240.726,175.38 238.5,177C 231.682,179.53 224.682,181.364 217.5,182.5C 218.822,177.007 216.822,174.507 211.5,175C 210.178,177.168 209.511,177.001 209.5,174.5C 213.937,173.887 218.27,173.22 222.5,172.5C 226.337,172.069 230.003,171.402 233.5,170.5C 236.833,170.5 238.5,168.833 238.5,165.5C 237.777,163.836 238.11,162.169 239.5,160.5 Z"/></g>
<g><path style="opacity:1" fill="#865d48" d="M 84.5,158.5 C 85.8333,158.5 87.1667,158.5 88.5,158.5C 88.5,158.833 88.5,159.167 88.5,159.5C 87.5222,159.811 86.8555,160.478 86.5,161.5C 89.6311,166.632 93.6311,170.632 98.5,173.5C 97.5,176.167 96.5,178.833 95.5,181.5C 93.4515,180.674 91.7849,181.341 90.5,183.5C 88.0504,183.702 85.717,183.369 83.5,182.5C 81.5805,176.569 79.9138,170.569 78.5,164.5C 81.05,162.995 83.05,160.995 84.5,158.5 Z"/></g>
<g><path style="opacity:1" fill="#2d2d31" d="M 124.5,172.5 C 124.833,172.5 125.167,172.5 125.5,172.5C 126.862,179.169 130.196,184.503 135.5,188.5C 134.725,191.519 133.392,194.186 131.5,196.5C 130.833,196.5 130.167,196.5 129.5,196.5C 130.187,191.506 128.187,188.506 123.5,187.5C 123.5,186.833 123.5,186.167 123.5,185.5C 124.2,181.202 124.533,176.869 124.5,172.5 Z"/></g>
<g><path style="opacity:1" fill="#3b539b" d="M 124.5,172.5 C 124.533,176.869 124.2,181.202 123.5,185.5C 121.431,183.427 119.098,181.76 116.5,180.5C 116.669,182.912 116.003,185.079 114.5,187C 114.978,188.303 115.645,189.469 116.5,190.5C 114.271,192.099 113.938,194.099 115.5,196.5C 112.131,198.515 108.798,200.515 105.5,202.5C 105.167,202.5 104.833,202.5 104.5,202.5C 101.696,195.423 98.696,188.423 95.5,181.5C 96.5,178.833 97.5,176.167 98.5,173.5C 107.149,172.797 115.815,172.464 124.5,172.5 Z"/></g>
<g><path style="opacity:1" fill="#d9dded" d="M 100.5,175.5 C 103.523,175.105 104.523,176.105 103.5,178.5C 102.167,179.833 100.833,179.833 99.5,178.5C 100.127,177.583 100.461,176.583 100.5,175.5 Z"/></g>
<g><path style="opacity:1" fill="#a9d8cf" d="M 123.5,185.5 C 123.5,186.167 123.5,186.833 123.5,187.5C 121.794,189.536 119.461,190.536 116.5,190.5C 115.645,189.469 114.978,188.303 114.5,187C 116.003,185.079 116.669,182.912 116.5,180.5C 119.098,181.76 121.431,183.427 123.5,185.5 Z"/></g>
<g><path style="opacity:1" fill="#c5d5f2" d="M 83.5,182.5 C 85.717,183.369 88.0504,183.702 90.5,183.5C 91.5,185.5 92.5,187.5 93.5,189.5C 92.5233,192.287 92.19,195.287 92.5,198.5C 91.0048,198.989 89.6715,199.655 88.5,200.5C 86.5411,194.674 84.8744,188.674 83.5,182.5 Z"/></g>
<g><path style="opacity:1" fill="#c8966c" d="M 95.5,181.5 C 98.696,188.423 101.696,195.423 104.5,202.5C 103.295,203.686 101.961,203.686 100.5,202.5C 98.421,198.007 96.0877,193.674 93.5,189.5C 92.5,187.5 91.5,185.5 90.5,183.5C 91.7849,181.341 93.4515,180.674 95.5,181.5 Z"/></g>
<g><path style="opacity:1" fill="#e392d7" d="M 123.5,187.5 C 128.187,188.506 130.187,191.506 129.5,196.5C 125.573,197.096 122.073,198.763 119,201.5C 118.617,200.944 118.117,200.611 117.5,200.5C 116.833,199.167 116.167,197.833 115.5,196.5C 113.938,194.099 114.271,192.099 116.5,190.5C 119.461,190.536 121.794,189.536 123.5,187.5 Z"/></g>
<g><path style="opacity:1" fill="#3f559b" d="M 93.5,189.5 C 96.0877,193.674 98.421,198.007 100.5,202.5C 98.4777,204.693 95.8111,205.693 92.5,205.5C 92.5,203.167 92.5,200.833 92.5,198.5C 92.19,195.287 92.5233,192.287 93.5,189.5 Z"/></g>
<g><path style="opacity:1" fill="#c4cad8" d="M 135.5,188.5 C 137.807,189.653 140.14,190.82 142.5,192C 149.158,192.5 155.825,192.666 162.5,192.5C 152.183,193.581 142.183,196.248 132.5,200.5C 132.768,198.901 132.434,197.568 131.5,196.5C 133.392,194.186 134.725,191.519 135.5,188.5 Z"/></g>
<g><path style="opacity:1" fill="#393e43" d="M 115.5,196.5 C 116.167,197.833 116.833,199.167 117.5,200.5C 113.5,201.167 109.5,201.833 105.5,202.5C 108.798,200.515 112.131,198.515 115.5,196.5 Z"/></g>
<g><path style="opacity:1" fill="#ade7cf" d="M 174.5,177.5 C 174.02,180.685 174.686,183.519 176.5,186C 179.438,185.304 182.438,184.47 185.5,183.5C 184.017,186.411 184.35,189.078 186.5,191.5C 156.865,198.284 127.365,205.617 98,213.5C 95.1861,213.592 92.8527,212.592 91,210.5C 89.5387,207.321 88.7054,203.988 88.5,200.5C 89.6715,199.655 91.0048,198.989 92.5,198.5C 92.5,200.833 92.5,203.167 92.5,205.5C 95.8111,205.693 98.4777,204.693 100.5,202.5C 101.961,203.686 103.295,203.686 104.5,202.5C 104.833,202.5 105.167,202.5 105.5,202.5C 109.5,201.833 113.5,201.167 117.5,200.5C 118.117,200.611 118.617,200.944 119,201.5C 122.073,198.763 125.573,197.096 129.5,196.5C 130.167,196.5 130.833,196.5 131.5,196.5C 132.434,197.568 132.768,198.901 132.5,200.5C 142.183,196.248 152.183,193.581 162.5,192.5C 165.334,190.498 167.667,187.998 169.5,185C 168.627,183.955 167.627,183.122 166.5,182.5C 166.833,181.833 167.167,181.167 167.5,180.5C 168.468,178.393 168.802,176.059 168.5,173.5C 171.292,173.622 173.292,174.956 174.5,177.5 Z"/></g>
</svg>
