<?xml version="1.0" standalone="no"?>
<!DOCTYPE svg PUBLIC "-//W3C//DTD SVG 20010904//EN"
 "http://www.w3.org/TR/2001/REC-SVG-20010904/DTD/svg10.dtd">
<svg version="1.0" xmlns="http://www.w3.org/2000/svg"
 width="386.000000pt" height="226.000000pt" viewBox="0 0 386.000000 226.000000"
 preserveAspectRatio="xMidYMid meet">

<g transform="translate(0.000000,226.000000) scale(0.100000,-0.100000)"
fill="#000000" stroke="none">
<path d="M95 2246 c-37 -16 -70 -52 -84 -89 -8 -19 -11 -363 -11 -1093 l0
-1064 1865 0 c1839 0 1866 0 1905 20 21 11 49 34 62 52 l23 33 3 1078 2 1077
-1867 0 c-1534 -1 -1873 -3 -1898 -14z m861 -337 c88 -26 151 -67 214 -135
121 -134 158 -313 99 -491 -23 -71 -33 -81 -55 -59 -8 9 -21 16 -29 16 -7 0
-21 24 -30 55 -18 55 -27 65 -41 44 -12 -21 -93 -3 -140 30 -40 28 -45 29 -50
14 -13 -40 -28 -63 -46 -69 -24 -7 -48 12 -48 40 0 16 -7 11 -30 -24 -56 -84
-136 -101 -134 -27 l1 35 -44 -20 c-38 -17 -49 -18 -74 -8 -16 7 -29 19 -29
28 0 32 -40 -20 -57 -75 -16 -50 -19 -53 -49 -53 -30 0 -34 4 -53 55 -59 157
-42 313 49 455 57 88 165 167 269 196 74 20 199 17 277 -7z m1034 -112 l1 -52
18 23 c18 20 51 31 51 15 0 -4 -10 -17 -22 -30 l-22 -23 23 -30 c21 -29 21
-50 1 -50 -5 0 -17 14 -27 31 l-18 30 -5 -28 c-3 -16 -13 -29 -23 -31 -15 -3
-17 7 -17 96 0 71 4 102 13 105 22 8 27 -3 27 -56z m-240 35 c27 -22 30 -68 5
-86 -18 -13 -17 -15 3 -44 26 -36 26 -38 7 -46 -10 -3 -24 8 -41 34 -15 22
-31 40 -35 40 -5 0 -9 -18 -9 -40 0 -29 -4 -40 -15 -40 -12 0 -15 18 -15 100
l0 100 39 0 c23 0 48 -8 61 -18z m547 -62 c8 0 17 9 20 20 3 11 10 20 15 20 5
0 6 -9 3 -20 -5 -15 -2 -20 12 -21 17 -1 17 -2 1 -6 -10 -2 -18 -8 -18 -13 0
-5 -3 -15 -6 -24 -4 -11 0 -16 12 -17 16 -1 16 -2 3 -6 -10 -2 -20 -14 -24
-26 l-8 -22 -4 23 c-6 29 -43 31 -43 2 0 -11 -5 -20 -11 -20 -6 0 -9 7 -5 15
3 8 -2 19 -12 24 -16 10 -16 10 1 11 9 0 17 4 17 9 0 5 3 16 6 25 4 11 0 16
-12 17 -17 1 -17 2 -1 6 9 2 17 12 17 22 0 29 15 35 18 7 2 -15 10 -26 19 -26z
m183 30 c41 -41 16 -150 -34 -150 -8 0 -24 9 -37 19 -19 15 -24 29 -24 64 0
75 51 111 95 67z m150 0 c42 -42 16 -150 -35 -150 -9 0 -27 11 -40 25 -31 30
-33 82 -4 119 24 31 52 33 79 6z m150 0 c43 -43 14 -150 -40 -150 -26 0 -60
47 -60 82 0 74 56 112 100 68z m136 12 c37 -24 44 -96 13 -136 -41 -52 -99
-18 -99 59 0 64 45 104 86 77z m-1011 -38 c11 -11 15 -30 13 -57 -2 -33 -9
-44 -30 -57 -25 -13 -31 -13 -55 0 -22 13 -29 24 -31 57 -4 48 16 73 58 73 16
0 36 -7 45 -16z m283 -54 l3 -66 -47 1 c-78 0 -89 57 -16 80 42 12 41 25 -3
25 -33 0 -43 8 -28 24 4 4 25 6 48 4 l40 -3 3 -65z m828 -252 c63 -50 103
-118 104 -179 0 -72 -70 -169 -123 -169 -21 0 -32 19 -18 33 22 22 10 47 -36
82 -27 19 -50 35 -53 35 -3 0 -33 -36 -68 -80 -35 -44 -70 -80 -78 -80 -35 0
-23 33 40 112 50 63 64 88 60 105 -13 50 37 128 96 152 37 14 44 13 76 -11z
m-486 -130 l-1 -103 -65 -50 c-36 -27 -70 -49 -75 -47 -6 1 -39 26 -75 54
l-64 52 0 98 0 98 140 0 140 0 0 -102z m-530 -3 c70 -70 -20 -186 -109 -141
-35 19 -51 44 -51 81 0 84 98 121 160 60z m-944 -244 c-31 -58 -144 -67 -186
-14 -11 14 -20 34 -20 43 0 16 4 17 34 8 43 -13 113 -3 151 22 l30 20 3 -24
c2 -14 -4 -38 -12 -55z m-418 17 c27 0 63 7 80 16 31 16 32 16 32 -4 0 -39
-28 -78 -66 -90 -30 -10 -43 -9 -80 5 -48 18 -64 39 -64 80 0 25 1 25 25 9 14
-9 45 -16 73 -16z"/>
<path d="M1680 1790 c0 -25 4 -30 25 -30 14 0 28 7 31 15 8 20 -13 45 -37 45
-14 0 -19 -7 -19 -30z"/>
<path d="M2270 1735 c0 -18 5 -25 20 -25 15 0 20 7 20 25 0 18 -5 25 -20 25
-15 0 -20 -7 -20 -25z"/>
<path d="M2410 1774 c-20 -51 -5 -104 29 -104 27 0 43 24 43 65 0 63 -52 91
-72 39z"/>
<path d="M2560 1781 c-32 -62 15 -142 58 -99 16 16 16 90 0 106 -18 18 -46 14
-58 -7z"/>
<path d="M2710 1781 c-32 -62 15 -142 58 -99 16 16 16 90 0 106 -18 18 -46 14
-58 -7z"/>
<path d="M2862 1788 c-16 -16 -16 -90 0 -106 31 -31 68 -1 68 53 0 54 -37 84
-68 53z"/>
<path d="M1834 1746 c-3 -9 -3 -28 0 -42 5 -19 12 -25 29 -22 18 2 22 9 22 38
0 29 -4 36 -23 38 -13 2 -25 -3 -28 -12z"/>
<path d="M2120 1705 c-10 -12 -9 -16 3 -21 20 -7 37 3 37 22 0 18 -24 18 -40
-1z"/>
<path d="M2290 1354 c0 -3 7 -19 16 -36 11 -22 13 -33 5 -38 -10 -6 66 -70 84
-70 3 0 27 14 52 31 31 22 41 34 33 39 -10 6 -9 13 4 31 29 42 19 51 -26 22
-24 -16 -48 -35 -55 -43 -8 -9 -12 -10 -13 -3 0 11 -100 78 -100 67z"/>
</g>
</svg>
