<?xml version="1.0" encoding="UTF-8"?>
<!DOCTYPE svg PUBLIC "-//W3C//DTD SVG 1.1//EN" "http://www.w3.org/Graphics/SVG/1.1/DTD/svg11.dtd">
<svg xmlns="http://www.w3.org/2000/svg" version="1.1" width="424px" height="254px" style="shape-rendering:geometricPrecision; text-rendering:geometricPrecision; image-rendering:optimizeQuality; fill-rule:evenodd; clip-rule:evenodd" xmlns:xlink="http://www.w3.org/1999/xlink">
<g><path style="opacity:1" fill="#18191c" d="M 0.5,-0.5 C 141.5,-0.5 282.5,-0.5 423.5,-0.5C 423.5,84.1667 423.5,168.833 423.5,253.5C 282.5,253.5 141.5,253.5 0.5,253.5C 0.5,168.833 0.5,84.1667 0.5,-0.5 Z"/></g>
<g><path style="opacity:1" fill="#fe77b8" d="M 178.5,198.5 C 178.923,193.46 180.256,188.793 182.5,184.5C 189.751,189.529 197.751,192.029 206.5,192C 218.24,185.941 228.573,177.941 237.5,168C 241.097,168.777 244.763,169.61 248.5,170.5C 255.728,169.109 262.728,166.942 269.5,164C 271.466,162.653 271.799,161.153 270.5,159.5C 270.5,158.5 270.5,157.5 270.5,156.5C 269.756,154.547 268.256,153.547 266,153.5C 263.378,153.925 260.878,154.425 258.5,155C 261.001,153.327 263.334,151.493 265.5,149.5C 264.833,147.5 263.5,146.167 261.5,145.5C 257.402,148.298 253.235,150.964 249,153.5C 248.5,153.167 248,152.833 247.5,152.5C 250.303,149.763 250.136,147.429 247,145.5C 231.397,154.383 215.897,163.383 200.5,172.5C 190.313,166.24 179.98,160.24 169.5,154.5C 173.438,151.065 177.271,147.398 181,143.5C 187.034,134.728 188.034,125.394 184,115.5C 183.292,114.619 182.458,113.953 181.5,113.5C 181.5,113.167 181.5,112.833 181.5,112.5C 183.435,105.367 183.768,98.0338 182.5,90.5C 178.479,95.1877 174.146,99.521 169.5,103.5C 163.487,100.328 157.154,97.9948 150.5,96.5C 151.877,91.411 153.543,86.411 155.5,81.5C 156.338,81.1583 156.672,80.4916 156.5,79.5C 159.293,84.3132 163.46,86.9799 169,87.5C 176.386,87.9793 179.053,84.646 177,77.5C 172.563,65.5409 164.063,60.0409 151.5,61C 149.413,61.7922 147.579,62.9588 146,64.5C 141.602,73.7034 137.602,83.0367 134,92.5C 123.703,79.2662 110.203,71.5995 93.5,69.5C 87.2376,68.4617 82.9043,70.795 80.5,76.5C 80.9404,79.2138 82.2738,81.3805 84.5,83C 93.1197,86.3274 101.786,89.6607 110.5,93C 114.993,95.079 119.326,97.4123 123.5,100C 119.886,103.103 116.886,106.603 114.5,110.5C 110.803,109.819 107.136,109.319 103.5,109C 105.401,112.644 107.401,116.144 109.5,119.5C 109.167,120.167 108.833,120.833 108.5,121.5C 106.452,126.46 104.785,131.46 103.5,136.5C 91.5771,123.745 80.5771,110.245 70.5,96C 69.2161,95.3162 68.0495,95.4829 67,96.5C 66.5702,99.1922 66.7369,101.859 67.5,104.5C 66.448,104.649 65.448,104.483 64.5,104C 61.1667,101.333 57.8333,98.6667 54.5,96C 52.9343,95.235 51.6009,95.4017 50.5,96.5C 49.8333,96.5 49.1667,96.5 48.5,96.5C 47.0048,96.9887 45.6715,97.6554 44.5,98.5C 43.8333,98.8333 43.1667,99.1667 42.5,99.5C 38.7126,102.135 38.5459,105.135 42,108.5C 45.9701,113.475 50.8035,117.309 56.5,120C 60.5753,120.518 64.5753,120.518 68.5,120C 84.6978,139.69 101.031,159.19 117.5,178.5C 119.58,185.338 122.247,192.004 125.5,198.5C 89.5,198.5 53.5,198.5 17.5,198.5C 17.5,141.833 17.5,85.1667 17.5,28.5C 109.5,28.5 201.5,28.5 293.5,28.5C 293.5,85.1667 293.5,141.833 293.5,198.5C 255.167,198.5 216.833,198.5 178.5,198.5 Z"/></g>
<g><path style="opacity:1" fill="#91fead" d="M 393.5,108.5 C 393.54,85.7123 382.54,71.5456 360.5,66C 353.508,64.8053 346.842,65.6386 340.5,68.5C 330.45,65.5116 325.45,69.5116 325.5,80.5C 322.339,83.475 320.172,87.1417 319,91.5C 317.783,97.101 317.283,102.768 317.5,108.5C 312.5,108.5 307.5,108.5 302.5,108.5C 302.5,88.1667 302.5,67.8333 302.5,47.5C 337.167,47.5 371.833,47.5 406.5,47.5C 406.5,67.8333 406.5,88.1667 406.5,108.5C 402.167,108.5 397.833,108.5 393.5,108.5 Z"/></g>
<g><path style="opacity:1" fill="#95d3fa" d="M 252.5,55.5 C 253.221,61.1503 255.888,65.9837 260.5,70C 255.758,73.6491 253.258,78.4824 253,84.5C 253.134,78.1924 250.634,73.359 245.5,70C 250.382,66.4016 252.716,61.5683 252.5,55.5 Z"/></g>
<g><path style="opacity:1" fill="#fee45d" d="M 156.5,79.5 C 155.356,76.5534 153.689,73.8867 151.5,71.5C 148.889,70.3472 148.223,71.0139 149.5,73.5C 147.829,79.0099 145.662,84.3432 143,89.5C 142.506,91.1341 142.34,92.8008 142.5,94.5C 143.5,94.5 144.5,94.5 145.5,94.5C 147.039,88.4337 149.372,82.767 152.5,77.5C 153.5,78.8333 154.5,80.1667 155.5,81.5C 153.543,86.411 151.877,91.411 150.5,96.5C 157.154,97.9948 163.487,100.328 169.5,103.5C 169.5,103.833 169.5,104.167 169.5,104.5C 164.158,109.676 158.658,114.676 153,119.5C 140.268,116.311 127.435,113.644 114.5,111.5C 114.5,111.167 114.5,110.833 114.5,110.5C 116.886,106.603 119.886,103.103 123.5,100C 119.326,97.4123 114.993,95.079 110.5,93C 101.786,89.6607 93.1197,86.3274 84.5,83C 82.2738,81.3805 80.9404,79.2138 80.5,76.5C 82.9043,70.795 87.2376,68.4617 93.5,69.5C 110.203,71.5995 123.703,79.2662 134,92.5C 137.602,83.0367 141.602,73.7034 146,64.5C 147.579,62.9588 149.413,61.7922 151.5,61C 164.063,60.0409 172.563,65.5409 177,77.5C 179.053,84.646 176.386,87.9793 169,87.5C 163.46,86.9799 159.293,84.3132 156.5,79.5 Z"/></g>
<g><path style="opacity:1" fill="#fc78b7" d="M 393.5,108.5 C 368.167,108.5 342.833,108.5 317.5,108.5C 317.283,102.768 317.783,97.101 319,91.5C 320.172,87.1417 322.339,83.475 325.5,80.5C 327.627,89.8904 332.627,91.8904 340.5,86.5C 342.48,84.2052 343.647,81.5385 344,78.5C 343.709,84.6849 346.209,89.1849 351.5,92C 357.718,92.468 361.552,89.6347 363,83.5C 364.942,77.1103 363.109,72.2769 357.5,69C 352.394,67.937 348.727,69.7704 346.5,74.5C 345.675,75.3857 344.675,75.719 343.5,75.5C 343.312,72.7939 342.312,70.4605 340.5,68.5C 346.842,65.6386 353.508,64.8053 360.5,66C 382.54,71.5456 393.54,85.7123 393.5,108.5 Z"/></g>
<g><path style="opacity:1" fill="#6a6aed" d="M 340.5,68.5 C 342.312,70.4605 343.312,72.7939 343.5,75.5C 344.675,75.719 345.675,75.3857 346.5,74.5C 348.727,69.7704 352.394,67.937 357.5,69C 363.109,72.2769 364.942,77.1103 363,83.5C 361.552,89.6347 357.718,92.468 351.5,92C 346.209,89.1849 343.709,84.6849 344,78.5C 343.647,81.5385 342.48,84.2052 340.5,86.5C 332.627,91.8904 327.627,89.8904 325.5,80.5C 325.45,69.5116 330.45,65.5116 340.5,68.5 Z"/></g>
<g><path style="opacity:1" fill="#f7f8fd" d="M 332.5,69.5 C 337.867,69.0323 340.534,71.5323 340.5,77C 340.848,82.0365 338.682,85.2032 334,86.5C 329.976,85.4788 328.142,82.8121 328.5,78.5C 328.488,74.8614 329.821,71.8614 332.5,69.5 Z"/></g>
<g><path style="opacity:1" fill="#1e1a0d" d="M 156.5,79.5 C 156.672,80.4916 156.338,81.1583 155.5,81.5C 154.5,80.1667 153.5,78.8333 152.5,77.5C 151.488,76.1283 150.488,74.795 149.5,73.5C 148.223,71.0139 148.889,70.3472 151.5,71.5C 153.689,73.8867 155.356,76.5534 156.5,79.5 Z"/></g>
<g><path style="opacity:1" fill="#f0f0f8" d="M 352.5,71.5 C 357.825,71.4914 360.491,74.1581 360.5,79.5C 360.61,84.6323 358.277,87.9656 353.5,89.5C 347.497,86.4335 345.997,81.7668 349,75.5C 350.376,74.2949 351.542,72.9616 352.5,71.5 Z"/></g>
<g><path style="opacity:1" fill="#fdc71f" d="M 149.5,73.5 C 150.488,74.795 151.488,76.1283 152.5,77.5C 149.372,82.767 147.039,88.4337 145.5,94.5C 144.5,94.5 143.5,94.5 142.5,94.5C 142.34,92.8008 142.506,91.1341 143,89.5C 145.662,84.3432 147.829,79.0099 149.5,73.5 Z"/></g>
<g><path style="opacity:1" fill="#ffc920" d="M 90.5,78.5 C 108.045,79.6069 122.712,86.6069 134.5,99.5C 133.277,100.614 131.944,100.781 130.5,100C 119.317,89.2427 105.984,83.0761 90.5,81.5C 90.5,80.5 90.5,79.5 90.5,78.5 Z"/></g>
<g><path style="opacity:1" fill="#2c2c2c" d="M 331.5,77.5 C 333.484,77.484 334.484,78.484 334.5,80.5C 333.167,84.5 331.833,84.5 330.5,80.5C 330.685,79.4163 331.018,78.4163 331.5,77.5 Z"/></g>
<g><path style="opacity:1" fill="#141414" d="M 350.5,80.5 C 355.145,81.2801 355.645,83.2801 352,86.5C 350.681,84.7505 350.181,82.7505 350.5,80.5 Z"/></g>
<g><path style="opacity:1" fill="#9cf3ae" d="M 234.5,84.5 C 235.225,87.7688 236.892,90.6022 239.5,93C 236.312,94.9344 234.812,97.7677 235,101.5C 234.681,98.0273 233.181,95.194 230.5,93C 233.321,90.8587 234.654,88.0254 234.5,84.5 Z"/></g>
<g><path style="opacity:1" fill="#060103" d="M 337.5,90.5 C 349.105,90.4492 349.438,91.7825 338.5,94.5C 337.571,93.3112 337.238,91.9778 337.5,90.5 Z"/></g>
<g><path style="opacity:1" fill="#d41f84" d="M 181.5,112.5 C 178.159,108.831 174.159,106.164 169.5,104.5C 169.5,104.167 169.5,103.833 169.5,103.5C 174.146,99.521 178.479,95.1877 182.5,90.5C 183.768,98.0338 183.435,105.367 181.5,112.5 Z"/></g>
<g><path style="opacity:1" fill="#fdd238" d="M 50.5,96.5 C 51.6009,95.4017 52.9343,95.235 54.5,96C 57.8333,98.6667 61.1667,101.333 64.5,104C 65.448,104.483 66.448,104.649 67.5,104.5C 66.7369,101.859 66.5702,99.1922 67,96.5C 68.0495,95.4829 69.2161,95.3162 70.5,96C 80.5771,110.245 91.5771,123.745 103.5,136.5C 104.595,141.947 106.762,146.947 110,151.5C 114.2,155.488 118.7,158.822 123.5,161.5C 120.675,166.98 118.675,172.646 117.5,178.5C 101.031,159.19 84.6978,139.69 68.5,120C 64.5753,120.518 60.5753,120.518 56.5,120C 50.8035,117.309 45.9701,113.475 42,108.5C 38.5459,105.135 38.7126,102.135 42.5,99.5C 45.61,105.113 50.11,109.113 56,111.5C 56.8333,111.167 57.6667,110.833 58.5,110.5C 52.5734,107.884 47.9067,103.884 44.5,98.5C 45.6715,97.6554 47.0048,96.9887 48.5,96.5C 51.8643,102.196 56.531,106.53 62.5,109.5C 63.3081,109.192 63.9747,108.692 64.5,108C 61.8333,106.333 59.1667,104.667 56.5,103C 54.5998,100.665 52.5998,98.498 50.5,96.5 Z"/></g>
<g><path style="opacity:1" fill="#1e1809" d="M 48.5,96.5 C 49.1667,96.5 49.8333,96.5 50.5,96.5C 52.5998,98.498 54.5998,100.665 56.5,103C 59.1667,104.667 61.8333,106.333 64.5,108C 63.9747,108.692 63.3081,109.192 62.5,109.5C 56.531,106.53 51.8643,102.196 48.5,96.5 Z"/></g>
<g><path style="opacity:1" fill="#1d1808" d="M 44.5,98.5 C 47.9067,103.884 52.5734,107.884 58.5,110.5C 57.6667,110.833 56.8333,111.167 56,111.5C 50.11,109.113 45.61,105.113 42.5,99.5C 43.1667,99.1667 43.8333,98.8333 44.5,98.5 Z"/></g>
<g><path style="opacity:1" fill="#fd8d1c" d="M 169.5,104.5 C 174.159,106.164 178.159,108.831 181.5,112.5C 181.5,112.833 181.5,113.167 181.5,113.5C 181.939,123.023 178.939,131.19 172.5,138C 169.634,139.457 166.634,139.79 163.5,139C 160.217,135.603 157.551,131.77 155.5,127.5C 150.064,153.022 138.23,156.355 120,137.5C 116.334,132.838 113.167,127.838 110.5,122.5C 110.043,121.702 109.376,121.369 108.5,121.5C 108.833,120.833 109.167,120.167 109.5,119.5C 110.68,116.46 112.347,113.794 114.5,111.5C 127.435,113.644 140.268,116.311 153,119.5C 158.658,114.676 164.158,109.676 169.5,104.5 Z"/></g>
<g><path style="opacity:1" fill="#d42084" d="M 114.5,110.5 C 114.5,110.833 114.5,111.167 114.5,111.5C 112.347,113.794 110.68,116.46 109.5,119.5C 107.401,116.144 105.401,112.644 103.5,109C 107.136,109.319 110.803,109.819 114.5,110.5 Z"/></g>
<g><path style="opacity:1" fill="#fbf8f5" d="M 169.5,115.5 C 171.074,117.102 171.741,119.102 171.5,121.5C 171.152,128.685 167.485,131.519 160.5,130C 158.058,125.948 157.891,121.781 160,117.5C 162.739,114.586 165.906,113.919 169.5,115.5 Z"/></g>
<g><path style="opacity:1" fill="#fee45c" d="M 181.5,113.5 C 182.458,113.953 183.292,114.619 184,115.5C 188.034,125.394 187.034,134.728 181,143.5C 177.271,147.398 173.438,151.065 169.5,154.5C 167.821,154.285 166.821,154.952 166.5,156.5C 159.255,158.645 151.922,160.478 144.5,162C 138.047,162.85 131.714,162.35 125.5,160.5C 124.817,160.863 124.15,161.196 123.5,161.5C 118.7,158.822 114.2,155.488 110,151.5C 106.762,146.947 104.595,141.947 103.5,136.5C 104.785,131.46 106.452,126.46 108.5,121.5C 109.376,121.369 110.043,121.702 110.5,122.5C 113.167,127.838 116.334,132.838 120,137.5C 138.23,156.355 150.064,153.022 155.5,127.5C 157.551,131.77 160.217,135.603 163.5,139C 166.634,139.79 169.634,139.457 172.5,138C 178.939,131.19 181.939,123.023 181.5,113.5 Z"/></g>
<g><path style="opacity:1" fill="#110e0c" d="M 171.5,121.5 C 171.741,119.102 171.074,117.102 169.5,115.5C 171.306,112.662 172.306,112.995 172.5,116.5C 173.675,116.281 174.675,116.614 175.5,117.5C 174.479,119.188 173.145,120.521 171.5,121.5 Z"/></g>
<g><path style="opacity:1" fill="#2a547f" d="M 406.5,118.5 C 371.833,118.5 337.167,118.5 302.5,118.5C 302.5,138.833 302.5,159.167 302.5,179.5C 301.503,159.007 301.169,138.34 301.5,117.5C 336.671,117.168 371.671,117.502 406.5,118.5 Z"/></g>
<g><path style="opacity:1" fill="#3f98f1" d="M 406.5,118.5 C 406.5,138.833 406.5,159.167 406.5,179.5C 394.833,179.5 383.167,179.5 371.5,179.5C 374.1,164.932 377.1,150.432 380.5,136C 377.726,131.058 374.059,126.892 369.5,123.5C 358.813,123.168 348.146,123.501 337.5,124.5C 336.244,129.114 335.244,133.781 334.5,138.5C 331.18,152.085 328.18,165.752 325.5,179.5C 317.833,179.5 310.167,179.5 302.5,179.5C 302.5,159.167 302.5,138.833 302.5,118.5C 337.167,118.5 371.833,118.5 406.5,118.5 Z"/></g>
<g><path style="opacity:1" fill="#181818" d="M 165.5,119.5 C 169.35,119.701 170.35,121.534 168.5,125C 164.537,125.118 163.537,123.284 165.5,119.5 Z"/></g>
<g><path style="opacity:1" fill="#fcf6f0" d="M 132.5,130.5 C 133.5,128.5 134.5,126.5 135.5,124.5C 143.766,120.014 147.933,122.348 148,131.5C 145.201,139.256 140.534,140.923 134,136.5C 132.872,134.655 132.372,132.655 132.5,130.5 Z"/></g>
<g><path style="opacity:1" fill="#afe1fe" d="M 369.5,123.5 C 369.246,128.444 368.246,133.111 366.5,137.5C 365.469,136.751 364.302,136.085 363,135.5C 361.701,135.966 360.201,135.966 358.5,135.5C 358.768,137.099 358.434,138.432 357.5,139.5C 358.065,130.923 354.065,127.756 345.5,130C 340.611,132.737 338.611,136.903 339.5,142.5C 338.71,141.391 338.21,140.058 338,138.5C 337.014,139.171 335.847,139.171 334.5,138.5C 335.244,133.781 336.244,129.114 337.5,124.5C 348.146,123.501 358.813,123.168 369.5,123.5 Z"/></g>
<g><path style="opacity:1" fill="#8bd7fe" d="M 369.5,123.5 C 374.059,126.892 377.726,131.058 380.5,136C 377.1,150.432 374.1,164.932 371.5,179.5C 367.167,179.5 362.833,179.5 358.5,179.5C 361.166,165.504 363.833,151.504 366.5,137.5C 368.246,133.111 369.246,128.444 369.5,123.5 Z"/></g>
<g><path style="opacity:1" fill="#140c06" d="M 135.5,124.5 C 134.5,126.5 133.5,128.5 132.5,130.5C 129.939,130.553 127.939,129.553 126.5,127.5C 128.473,126.669 130.473,126.502 132.5,127C 130.963,125.89 130.297,124.39 130.5,122.5C 132.514,122.392 134.18,123.058 135.5,124.5 Z"/></g>
<g><path style="opacity:1" fill="#131313" d="M 142.5,126.5 C 146.35,126.701 147.35,128.534 145.5,132C 141.83,131.836 140.83,130.003 142.5,126.5 Z"/></g>
<g><path style="opacity:1" fill="#221c12" d="M 162.5,147.5 C 159.939,146.233 157.272,146.233 154.5,147.5C 152.534,146.745 152.2,145.579 153.5,144C 156,143.5 158.5,143 161,142.5C 165.007,143.173 165.507,144.84 162.5,147.5 Z"/></g>
<g><path style="opacity:1" fill="#f676b0" d="M 162.5,147.5 C 162.441,149.722 161.275,150.722 159,150.5C 156.817,150.478 155.317,149.478 154.5,147.5C 157.272,146.233 159.939,146.233 162.5,147.5 Z"/></g>
<g><path style="opacity:1" fill="#fed338" d="M 270.5,156.5 C 265.506,159.082 260.173,160.415 254.5,160.5C 254.5,161.5 254.5,162.5 254.5,163.5C 259.993,162.78 265.326,161.446 270.5,159.5C 271.799,161.153 271.466,162.653 269.5,164C 262.728,166.942 255.728,169.109 248.5,170.5C 244.763,169.61 241.097,168.777 237.5,168C 228.573,177.941 218.24,185.941 206.5,192C 197.751,192.029 189.751,189.529 182.5,184.5C 183.225,178.725 182.059,173.392 179,168.5C 175.514,163.695 171.347,159.695 166.5,156.5C 166.821,154.952 167.821,154.285 169.5,154.5C 179.98,160.24 190.313,166.24 200.5,172.5C 215.897,163.383 231.397,154.383 247,145.5C 250.136,147.429 250.303,149.763 247.5,152.5C 248,152.833 248.5,153.167 249,153.5C 253.235,150.964 257.402,148.298 261.5,145.5C 263.5,146.167 264.833,147.5 265.5,149.5C 263.334,151.493 261.001,153.327 258.5,155C 260.878,154.425 263.378,153.925 266,153.5C 268.256,153.547 269.756,154.547 270.5,156.5 Z"/></g>
<g><path style="opacity:1" fill="#fffefd" d="M 166.5,156.5 C 171.347,159.695 175.514,163.695 179,168.5C 182.059,173.392 183.225,178.725 182.5,184.5C 180.256,188.793 178.923,193.46 178.5,198.5C 160.833,198.5 143.167,198.5 125.5,198.5C 122.247,192.004 119.58,185.338 117.5,178.5C 118.675,172.646 120.675,166.98 123.5,161.5C 124.15,161.196 124.817,160.863 125.5,160.5C 131.714,162.35 138.047,162.85 144.5,162C 151.922,160.478 159.255,158.645 166.5,156.5 Z"/></g>
<g><path style="opacity:1" fill="#4b57de" d="M 357.5,139.5 C 355.982,144.517 352.648,147.684 347.5,149C 351.826,154.044 351.16,158.378 345.5,162C 337.754,162.923 335.254,159.757 338,152.5C 339.731,150.383 341.898,148.883 344.5,148C 341.921,146.924 340.254,145.091 339.5,142.5C 338.611,136.903 340.611,132.737 345.5,130C 354.065,127.756 358.065,130.923 357.5,139.5 Z"/></g>
<g><path style="opacity:1" fill="#141421" d="M 346.5,132.5 C 354,131.166 356.833,134.166 355,141.5C 351.569,145.894 347.569,146.561 343,143.5C 341.662,138.96 342.829,135.293 346.5,132.5 Z"/></g>
<g><path style="opacity:1" fill="#d8d8e9" d="M 347.5,133.5 C 351.789,132.483 354.122,134.15 354.5,138.5C 352.609,144.498 349.109,145.831 344,142.5C 343.18,140.272 343.513,138.272 345,136.5C 345.271,140.13 346.938,141.13 350,139.5C 350.49,138.207 350.657,136.873 350.5,135.5C 349.127,135.657 347.793,135.49 346.5,135C 347.056,134.617 347.389,134.117 347.5,133.5 Z"/></g>
<g><path style="opacity:1" fill="#1e1909" d="M 270.5,156.5 C 270.5,157.5 270.5,158.5 270.5,159.5C 265.326,161.446 259.993,162.78 254.5,163.5C 254.5,162.5 254.5,161.5 254.5,160.5C 260.173,160.415 265.506,159.082 270.5,156.5 Z"/></g>
<g><path style="opacity:1" fill="#d8edfc" d="M 366.5,137.5 C 363.833,151.504 361.166,165.504 358.5,179.5C 347.5,179.5 336.5,179.5 325.5,179.5C 328.18,165.752 331.18,152.085 334.5,138.5C 335.847,139.171 337.014,139.171 338,138.5C 338.21,140.058 338.71,141.391 339.5,142.5C 340.254,145.091 341.921,146.924 344.5,148C 341.898,148.883 339.731,150.383 338,152.5C 335.254,159.757 337.754,162.923 345.5,162C 351.16,158.378 351.826,154.044 347.5,149C 352.648,147.684 355.982,144.517 357.5,139.5C 358.434,138.432 358.768,137.099 358.5,135.5C 360.201,135.966 361.701,135.966 363,135.5C 364.302,136.085 365.469,136.751 366.5,137.5 Z"/></g>
<g><path style="opacity:1" fill="#171838" d="M 342.5,150.5 C 347.989,150.504 349.822,153.171 348,158.5C 343.68,162.889 340.514,162.222 338.5,156.5C 339.432,154.235 340.765,152.235 342.5,150.5 Z"/></g>
<g><path style="opacity:1" fill="#d0d0e8" d="M 342.5,153.5 C 346.494,151.651 347.994,152.985 347,157.5C 345.267,159.602 343.267,159.935 341,158.5C 340.333,157.167 340.333,155.833 341,154.5C 341.71,155.973 342.876,156.64 344.5,156.5C 344.715,154.821 344.048,153.821 342.5,153.5 Z"/></g>
<g><path style="opacity:1" fill="#16151f" d="M 355.5,168.5 C 354.404,170.103 353.07,171.603 351.5,173C 347.812,173.45 344.146,173.283 340.5,172.5C 338.629,172.141 337.129,171.141 336,169.5C 335.415,168.002 335.915,167.002 337.5,166.5C 340.568,170.762 344.568,171.595 349.5,169C 351,167.167 352.5,165.333 354,163.5C 355.009,165.025 355.509,166.692 355.5,168.5 Z"/></g>
<g><path style="opacity:1" fill="#838be9" d="M 337.5,166.5 C 341.556,165.775 345.556,164.941 349.5,164C 348.275,165.563 346.775,166.73 345,167.5C 342.566,166.678 340.066,166.344 337.5,166.5 Z"/></g>
<g><path style="opacity:1" fill="#545aa9" d="M 355.5,168.5 C 354.363,173.908 351.03,176.075 345.5,175C 343.509,174.626 341.842,173.793 340.5,172.5C 344.146,173.283 347.812,173.45 351.5,173C 353.07,171.603 354.404,170.103 355.5,168.5 Z"/></g>
<g><path style="opacity:1" fill="#d2def6" d="M 153.5,206.5 C 167.558,206.64 173.725,213.64 172,227.5C 166.705,237.723 158.872,240.223 148.5,235C 140.919,226.946 140.586,218.613 147.5,210C 149.727,209.059 151.727,207.892 153.5,206.5 Z"/></g>
<g><path style="opacity:1" fill="#d3def6" d="M 190.5,206.5 C 206.617,207.425 212.117,215.425 207,230.5C 200.206,238.367 192.372,239.534 183.5,234C 175.058,221.957 177.391,212.791 190.5,206.5 Z"/></g>
<g><path style="opacity:1" fill="#d3dff7" d="M 226.5,206.5 C 240.558,206.64 246.725,213.64 245,227.5C 239.705,237.723 231.872,240.223 221.5,235C 215.885,230.032 214.052,223.865 216,216.5C 218.081,211.584 221.581,208.25 226.5,206.5 Z"/></g>
<g><path style="opacity:1" fill="#e1386a" d="M 263.5,206.5 C 279.617,207.425 285.117,215.425 280,230.5C 273.206,238.367 265.372,239.534 256.5,234C 248.058,221.957 250.391,212.791 263.5,206.5 Z"/></g>
<g><path style="opacity:1" fill="#272735" d="M 229.5,215.5 C 231.984,217.028 231.818,218.694 229,220.5C 228.36,218.735 228.527,217.068 229.5,215.5 Z"/></g>
<g><path style="opacity:1" fill="#292837" d="M 187.5,216.5 C 191.514,216.334 195.514,216.501 199.5,217C 200.833,220 200.833,223 199.5,226C 197.833,226.333 196.167,226.667 194.5,227C 195.167,227.333 195.833,227.667 196.5,228C 193.459,227.84 190.459,227.34 187.5,226.5C 187.5,223.167 187.5,219.833 187.5,216.5 Z"/></g>
<g><path style="opacity:1" fill="#222230" d="M 151.5,217.5 C 154.518,217.335 157.518,217.502 160.5,218C 161.126,218.75 161.626,219.584 162,220.5C 162.333,220.167 162.667,219.833 163,219.5C 163.779,221.807 163.279,223.807 161.5,225.5C 158.232,226.487 154.898,226.82 151.5,226.5C 151.5,223.5 151.5,220.5 151.5,217.5 Z"/></g>
<g><path style="opacity:1" fill="#fdedf2" d="M 260.5,217.5 C 261.833,217.5 263.167,217.5 264.5,217.5C 264.149,219.869 263.982,222.203 264,224.5C 264.689,225.357 265.522,226.023 266.5,226.5C 267.842,224.995 269.508,224.328 271.5,224.5C 271.5,225.833 271.5,227.167 271.5,228.5C 263.551,229.218 259.884,225.551 260.5,217.5 Z"/></g>
<g><path style="opacity:1" fill="#454858" d="M 229.5,224.5 C 228.206,225.29 227.039,226.29 226,227.5C 225.333,226.833 225.333,226.167 226,225.5C 228.833,222.667 231.667,219.833 234.5,217C 235.167,216.333 235.833,216.333 236.5,217C 233.961,219.37 231.628,221.87 229.5,224.5 Z"/></g>
<g><path style="opacity:1" fill="#fce5eb" d="M 268.5,215.5 C 270.205,216.088 271.872,216.421 273.5,216.5C 272.67,218.135 272.503,219.802 273,221.5C 271.667,218.833 270.333,218.833 269,221.5C 268.505,219.527 268.338,217.527 268.5,215.5 Z"/></g>
<g><path style="opacity:1" fill="#c1cbe3" d="M 194.5,218.5 C 196.446,219.254 197.279,220.588 197,222.5C 194.873,222.548 192.706,222.715 190.5,223C 192.192,221.693 193.525,220.193 194.5,218.5 Z"/></g>
<g><path style="opacity:1" fill="#56596b" d="M 229.5,224.5 C 231.911,224.863 233.411,223.863 234,221.5C 234.667,222.5 234.667,223.5 234,224.5C 232.493,225.505 231.327,226.838 230.5,228.5C 229.571,227.311 229.238,225.978 229.5,224.5 Z"/></g>
</svg>
